<svg width="887" height="434" viewBox="0 0 887 434" fill="none" xmlns="http://www.w3.org/2000/svg">
<path d="M206.471 327.349C217.497 343.775 264.545 354.493 286.691 357.8C362.683 375.461 377.378 323.039 384.659 310.456C391.94 297.874 365.384 257.147 351.271 252.43C337.159 247.714 334.18 237.617 332.389 222.003C330.597 206.388 311.684 171.856 277.262 170.362C242.84 168.869 262.367 150.368 237.541 117.045C212.715 83.7215 204.185 93.6116 189.156 100.875C174.127 108.137 170.546 107.396 144.939 89.2822C124.454 74.7913 104.378 73.4513 96.9008 74.5926C52.4894 82.0464 63.5186 108.029 67.3705 115.231C71.2223 122.434 79.4523 132.465 75.0902 146.933C70.728 161.401 83.5021 181.596 94.7259 188.533C105.95 195.469 116.21 192.983 121.778 220.78C127.346 248.578 126.82 252.952 174.437 271.141C222.054 289.33 192.689 306.817 206.471 327.349Z" fill="url(#paint0_linear)"/>
<path opacity="0.3" d="M340.816 355.412C298.152 281.252 207.635 173.3 137.541 124.845" stroke="#1D1D1D"/>
<path d="M598.622 249.618C582.126 250.984 559.509 278.253 550.262 291.717C513.45 335.636 551.26 364.29 559.219 373.653C567.178 383.015 607.847 380.145 615.839 372.508C623.831 364.87 632.841 366.544 645.938 370.997C659.034 375.45 692.446 375.401 703.885 353.158C715.324 330.914 724.403 350.519 758.6 346.12C792.796 341.722 787.375 332.505 786.001 319.936C784.627 307.366 786.289 305.264 808.48 294.856C826.232 286.53 833.281 273.727 834.587 268.366C841.798 236.28 817.611 234.198 810.67 234.147C803.729 234.095 793.21 235.92 782.866 227.809C772.521 219.698 752.473 220.86 743.553 225.784C734.634 230.708 733.583 238.396 709.56 232.044C685.537 225.692 682.174 223.764 653.376 248.712C624.579 273.66 619.242 247.91 598.622 249.618Z" fill="url(#paint1_linear)"/>
<path opacity="0.1" d="M650.625 251.709C654.897 338.006 596.26 371.492 566.408 377.448C559.839 377.448 554.902 370.169 553.255 366.529L637.888 258.99L650.625 251.709Z" fill="#1D1D1D"/>
<path opacity="0.3" d="M505.697 330.37C586.867 329.131 714.699 306.428 782.113 274.567" stroke="#1D1D1D"/>
<ellipse opacity="0.3" cx="801.5" cy="404" rx="25.5" ry="12" fill="#1D1D1D"/>
<path d="M788.104 366.048C784.19 350.523 796.65 354.064 799.883 361.306C806.405 348.72 814.605 357.45 811.766 366.048C827.385 361.306 824.312 371.417 818.459 376.229C832.886 378.384 825.12 387.384 818.459 387.384C826.091 399.472 815.055 400.908 808.295 396.086C808.295 407.476 796.485 405.475 793.995 397.083C786.565 405.703 780.437 398.138 784.19 389.621C771.144 389.966 773.165 381.576 782.899 377.307C768.947 369.203 777.399 361.306 788.104 366.048Z" fill="white"/>
<ellipse cx="800.507" cy="379.669" rx="9.8271" ry="9.35007" fill="#F3B03E"/>
<ellipse cx="799.343" cy="378.485" rx="6.26998" ry="5.96562" fill="#FAC568"/>
<ellipse opacity="0.3" cx="91.0005" cy="404" rx="42" ry="12" fill="#1D1D1D"/>
<path d="M288.133 280.245C302.684 284.024 316.979 307.3 322.308 318.465C345.678 356.018 305.25 370.006 295.999 375.323C286.747 380.641 250.764 371.68 245.267 364.879C239.771 358.078 231.285 357.739 218.5 358.684C205.714 359.63 175.638 353.914 170.29 336.12C164.941 318.325 152.401 330.75 122.586 321.801C92.7712 312.852 99.705 307.207 103.741 298.484C107.777 289.762 106.749 287.981 89.0834 276.792C74.951 267.841 71.4541 257.52 71.4722 253.478C72.1227 229.39 94.3664 232.019 100.628 233.163C106.89 234.307 115.956 237.396 127.077 233.375C138.198 229.355 155.994 233.592 162.929 238.617C169.865 243.643 169.099 249.299 192.146 248.859C215.193 248.418 218.651 247.616 239.029 270.289C259.406 292.962 269.946 275.522 288.133 280.245Z" fill="url(#paint2_linear)"/>
<path opacity="0.2" d="M305.626 185.163C149.094 241.269 230.387 341.232 300.304 373.818L329.167 352.682C329.167 305.121 328.021 207.443 323.438 197.22C318.854 186.998 309.654 184.923 305.626 185.163Z" fill="#1D1D1D"/>
<path opacity="0.3" d="M326.905 347.014C262.069 333.67 164.267 299.409 116.818 268.645" stroke="#1D1D1D"/>
<path d="M635.029 282.319C629.657 296.976 594.242 311.981 577.206 317.651C520.078 342.166 497.28 302.199 488.802 293.118C480.324 284.038 493.016 247.803 503.323 242.1C513.63 236.397 513.891 227.906 512.039 215.16C510.187 202.413 518.063 172.181 545.309 166.286C572.556 160.392 553.028 148.244 565.893 118.174C578.757 88.1035 587.668 94.8578 601.23 98.6214C614.792 102.385 617.503 101.302 634.194 83.3034C647.547 68.9042 663.339 65.0907 669.566 64.9838C706.694 64.8892 703.331 87.1984 701.763 93.4912C700.195 99.7841 695.716 108.939 702.254 119.928C708.791 130.917 702.813 148.831 695.286 155.916C687.76 163.002 679.021 162.412 680.413 185.429C681.805 208.446 683.147 211.877 648.848 232.941C614.55 254.005 641.743 263.998 635.029 282.319Z" fill="url(#paint3_linear)"/>
<path opacity="0.2" d="M559.596 160.069C646.062 167.847 654.644 211.465 648.127 232.301L633.18 243.876C597.345 219.336 527.4 170.348 534.299 170.719C541.198 171.089 554.038 163.773 559.596 160.069Z" fill="#1D1D1D"/>
<path opacity="0.3" d="M533.369 323.128C551.921 257.926 601.678 159.134 647.603 110.767" stroke="#1D1D1D"/>
<path d="M333.443 308.139C336.181 328.174 379.675 354.479 401.079 365.128C471.144 407.964 514.61 360.585 528.971 350.459C543.333 340.333 537.363 290.916 525.122 281.529C512.88 272.142 515.172 261.088 521.664 244.928C528.156 228.767 526.866 188.063 491.643 175.146C456.419 162.228 486.767 150.269 478.642 108.807C470.517 67.3457 456.291 74.3729 436.671 76.6233C417.051 78.8736 413.701 76.9455 396.608 50.3867C382.934 29.1397 362.643 21.1385 354.206 19.7938C303.735 12.4793 301.356 42.0423 301.527 50.5013C301.699 58.9603 304.937 71.6923 292.62 84.667C280.303 97.6416 282.85 122.015 290.88 132.656C298.909 143.297 310.979 144.225 301.911 173.784C292.844 203.343 289.95 207.529 330.036 241.471C370.123 275.413 330.021 283.095 333.443 308.139Z" fill="url(#paint4_linear)"/>
<path opacity="0.2" d="M474.147 164.321C354.113 157.652 328.846 212.516 331.217 240.781L347.939 258.678C404.33 233.816 514.736 183.879 505.237 183.023C495.738 182.167 480.552 170.198 474.147 164.321Z" fill="#1D1D1D"/>
<path opacity="0.3" d="M458.999 380.718C454.087 292.625 417.201 154.958 369.81 83.3817" stroke="#1D1D1D"/>
<path d="M640.201 234.777C645.39 327.221 557.288 375.881 512.588 388.656C512.588 395.624 505.379 401.237 501.774 403.173C460.9 414.07 401.009 411.897 371.277 403.173C354.582 398.274 353.012 390.204 354.695 385.753C291.825 369.494 252.556 318.975 240.78 295.748C215.786 274.069 200.403 218.518 396.509 181.936C590.852 145.682 643.085 200.13 640.201 234.777Z" fill="#EBEBEB"/>
<ellipse rx="208.504" ry="75.3604" transform="matrix(0.990604 -0.136764 0.208175 0.978092 431.896 244.849)" fill="#EBEBEB"/>
<path d="M473.54 176.037C450.058 187.268 459.656 198.56 467.39 202.802C528.824 184.172 510.528 168.278 493.7 162.659C492.264 164.609 497.021 164.805 473.54 176.037Z" fill="#429382"/>
<path d="M257.711 251.056C285.235 234.189 303.608 250.129 309.354 260.208C257.402 310.462 232.88 283.282 227.113 263.41C231.153 263.098 230.186 267.923 257.711 251.056Z" fill="url(#paint5_linear)"/>
<path d="M271.29 268.327C285.219 261.275 304.009 254.856 309.354 260.208C257.402 310.462 232.88 283.282 227.113 263.41C231.153 263.098 242.008 283.151 271.29 268.327Z" fill="#146957"/>
<path d="M292.342 214.764C334.467 227.59 325.305 254.933 315.458 267.001C210.701 255.511 231.023 214.939 254.279 196.089C257.497 199.467 250.216 201.938 292.342 214.764Z" fill="#429382"/>
<path d="M278.045 238.763C297.33 246.279 319.103 258.554 315.458 267.001C210.701 255.511 231.023 214.939 254.279 196.089C257.497 199.467 237.506 222.965 278.045 238.763Z" fill="#146957"/>
<path d="M547.655 275.073C574.485 273.796 577.763 290.49 576.049 298.997C515.5 313.29 514.301 287.199 521.269 272.367C524.044 273.575 520.824 276.35 547.655 275.073Z" fill="#429382"/>
<path d="M547.125 290.953C559.904 291.264 575.479 293.68 576.049 298.997C515.5 313.29 514.301 287.199 521.269 272.367C524.044 273.575 520.26 290.3 547.125 290.953Z" fill="#146957"/>
<path d="M389.049 194.959C399.843 200.968 394.869 208.182 391.032 211.038C362.41 201.866 371.693 191.541 379.913 187.526C380.528 188.663 378.254 188.95 389.049 194.959Z" fill="#429382"/>
<path d="M382.914 200.937C387.712 204.153 392.8 208.855 391.032 211.038C362.41 201.866 371.693 191.541 379.913 187.526C380.528 188.663 372.827 194.177 382.914 200.937Z" fill="#146957"/>
<ellipse cx="498.471" cy="227.26" rx="19.1338" ry="15.4103" fill="#117592"/>
<ellipse cx="501.906" cy="224.495" rx="13.7371" ry="11.0638" fill="#0C8AB0"/>
<ellipse opacity="0.2" cx="504.738" cy="221.859" rx="6.89189" ry="5.55073" fill="white"/>
<ellipse cx="313.084" cy="266.913" rx="15.4103" ry="19.1338" transform="rotate(-90 313.084 266.913)" fill="#117592"/>
<ellipse cx="309.658" cy="264.148" rx="11.0638" ry="13.7371" transform="rotate(-90 309.658 264.148)" fill="#0C8AB0"/>
<ellipse opacity="0.2" cx="306.379" cy="261.869" rx="5.55073" ry="6.89189" transform="rotate(-90 306.379 261.869)" fill="white"/>
<ellipse cx="730.591" cy="389.118" rx="8.11824" ry="8.59113" transform="rotate(-90 730.591 389.118)" fill="#117592"/>
<ellipse cx="729.052" cy="387.661" rx="5.82848" ry="6.16799" transform="rotate(-90 729.052 387.661)" fill="#0C8AB0"/>
<ellipse opacity="0.2" cx="727.578" cy="386.461" rx="2.92415" ry="3.09448" transform="rotate(-90 727.578 386.461)" fill="white"/>
<ellipse cx="8.0799" cy="395.203" rx="8.11824" ry="7.92023" transform="rotate(-90 8.0799 395.203)" fill="#117592"/>
<ellipse cx="6.66093" cy="393.745" rx="5.82848" ry="5.68632" transform="rotate(-90 6.66093 393.745)" fill="#0C8AB0"/>
<ellipse opacity="0.2" cx="5.30204" cy="392.545" rx="2.92415" ry="2.85282" transform="rotate(-90 5.30204 392.545)" fill="white"/>
<ellipse cx="391.268" cy="207.06" rx="10.2712" ry="12.7529" transform="rotate(-90 391.268 207.06)" fill="#117592"/>
<ellipse cx="388.985" cy="205.216" rx="7.37417" ry="9.15591" transform="rotate(-90 388.985 205.216)" fill="#0C8AB0"/>
<ellipse opacity="0.2" cx="386.799" cy="203.699" rx="3.69962" ry="4.59352" transform="rotate(-90 386.799 203.699)" fill="white"/>
<ellipse cx="362.792" cy="314.996" rx="10.2712" ry="12.7529" transform="rotate(-90 362.792 314.996)" fill="#117592"/>
<ellipse cx="360.499" cy="313.154" rx="7.37417" ry="9.15591" transform="rotate(-90 360.499 313.154)" fill="#0C8AB0"/>
<ellipse opacity="0.2" cx="358.317" cy="311.636" rx="3.69962" ry="4.59352" transform="rotate(-90 358.317 311.636)" fill="white"/>
<ellipse cx="525.286" cy="271.82" rx="10.2712" ry="12.7529" transform="rotate(-90 525.286 271.82)" fill="#117592"/>
<ellipse cx="522.991" cy="269.976" rx="7.37417" ry="9.15591" transform="rotate(-90 522.991 269.976)" fill="#0C8AB0"/>
<ellipse opacity="0.2" cx="520.81" cy="268.458" rx="3.69962" ry="4.59352" transform="rotate(-90 520.81 268.458)" fill="white"/>
<ellipse opacity="0.5" rx="8.71437" ry="14.6037" transform="matrix(0.872404 -0.488785 0.65366 0.756788 411.516 246.632)" fill="white"/>
<ellipse opacity="0.5" rx="8.91005" ry="14.2138" transform="matrix(0.922862 0.385131 -0.541052 0.840989 364.98 280.836)" fill="white"/>
<ellipse opacity="0.5" rx="7.7368" ry="16.2991" transform="matrix(0.44816 -0.893953 0.95098 0.309252 476.571 285.565)" fill="white"/>
<ellipse opacity="0.5" rx="7.7368" ry="16.2991" transform="matrix(0.44816 -0.893953 0.95098 0.309252 563.07 240.215)" fill="white"/>
<ellipse opacity="0.5" rx="7.7368" ry="16.2991" transform="matrix(0.44816 -0.893953 0.95098 0.309252 344.365 232.328)" fill="white"/>
<ellipse opacity="0.5" rx="8.12327" ry="15.6746" transform="matrix(0.668265 0.743923 -0.864018 0.503461 469.225 210.641)" fill="white"/>
<ellipse opacity="0.5" rx="8.12327" ry="15.6746" transform="matrix(0.668265 0.743923 -0.864018 0.503461 305.198 296.083)" fill="white"/>
<path d="M76.0761 379.361C93.4222 358.382 126.485 364.775 140.848 370.595C122.657 424.005 73.8635 411.044 51.7408 397.887C55.9966 396.43 58.73 400.341 76.0761 379.361Z" fill="#B0CDC7"/>
<path d="M104.848 388.203C114.799 378.699 130.666 368.199 140.848 370.595C122.657 424.005 73.8635 411.044 51.7408 397.887C55.9966 396.43 83.9314 408.183 104.848 388.203Z" fill="#429382"/>
<path d="M670.369 281.672C704.674 251.18 776.609 193.094 789.904 204.682C806.523 219.168 800.765 244.278 670.369 281.672Z" fill="#1D1D1D"/>
<path d="M671.222 279.572C702.404 246.977 768.368 184.462 782.766 195.162C800.765 208.536 797.507 233.935 671.222 279.572Z" fill="url(#paint6_linear)"/>
<path d="M674.064 277.309C696.387 258.856 742.487 221.759 748.309 220.996C755.587 220.043 681.616 273.962 674.064 277.309Z" fill="#5EAD44"/>
<defs>
<linearGradient id="paint0_linear" x1="165.645" y1="59.5991" x2="286.37" y2="379.554" gradientUnits="userSpaceOnUse">
<stop stop-color="#3AB27F"/>
<stop offset="1" stop-color="#115E63"/>
</linearGradient>
<linearGradient id="paint1_linear" x1="826.206" y1="319.279" x2="533.147" y2="321.552" gradientUnits="userSpaceOnUse">
<stop stop-color="#429382"/>
<stop offset="1" stop-color="#146957"/>
</linearGradient>
<linearGradient id="paint2_linear" x1="67.6833" y1="291.179" x2="321.254" y2="373.056" gradientUnits="userSpaceOnUse">
<stop stop-color="#4B9A49"/>
<stop offset="1" stop-color="#115E63"/>
</linearGradient>
<linearGradient id="paint3_linear" x1="611.369" y1="62.3633" x2="560.815" y2="331.032" gradientUnits="userSpaceOnUse">
<stop stop-color="#3AB27F"/>
<stop offset="1" stop-color="#115E63"/>
</linearGradient>
<linearGradient id="paint4_linear" x1="372.083" y1="14.4193" x2="403.653" y2="332.677" gradientUnits="userSpaceOnUse">
<stop stop-color="#0C8AB0"/>
<stop offset="1" stop-color="#117592"/>
</linearGradient>
<linearGradient id="paint5_linear" x1="250.047" y1="239.404" x2="295.33" y2="278.334" gradientUnits="userSpaceOnUse">
<stop stop-color="#429382"/>
<stop offset="1" stop-color="#146957"/>
</linearGradient>
<linearGradient id="paint6_linear" x1="793.422" y1="184.977" x2="792.922" y2="261.52" gradientUnits="userSpaceOnUse">
<stop stop-color="#3A8EB2"/>
<stop offset="1" stop-color="#146957"/>
</linearGradient>
</defs>
</svg>
