<svg width="614" height="438" viewBox="0 0 614 438" fill="none" xmlns="http://www.w3.org/2000/svg">
<mask id="mask0" mask-type="alpha" maskUnits="userSpaceOnUse" x="0" y="0" width="614" height="438">
<rect width="614" height="438" fill="#C4C4C4"/>
</mask>
<g mask="url(#mask0)">
<path d="M501.476 102.97C624.368 63.9507 654.133 271.94 460.509 383.244C266.884 494.549 -20.9998 314.546 29.0002 164.799C58.7086 75.824 254 181.546 501.476 102.97Z" fill="#117592"/>
<path d="M77.3957 158.456C78.6351 169.251 96.782 183.248 105.701 188.896C134.936 211.691 152.682 185.938 158.574 180.411C164.467 174.884 161.734 148.253 156.616 143.244C151.498 138.235 152.388 132.262 154.99 123.515C157.593 114.768 156.843 92.8158 142.191 86.005C127.54 79.1942 140.041 72.6069 136.458 50.2767C132.874 27.9465 127.022 31.8009 118.91 33.1026C110.799 34.4043 109.402 33.3791 102.184 19.1284C96.4104 7.72774 87.9668 3.50223 84.4667 2.81454C63.5314 -0.90562 62.7027 15.0528 62.8185 19.6153C62.9344 24.1778 64.3424 31.0316 59.3114 38.0859C54.2803 45.1402 55.464 58.2769 58.8447 63.9813C62.2253 69.6857 67.2274 70.1323 63.6297 86.1187C60.032 102.105 58.8557 104.376 75.6323 122.507C92.4089 140.638 75.8464 144.961 77.3957 158.456Z" fill="#DEB1AA"/>
<path opacity="0.3" d="M129.765 197.047C127.265 149.547 111.265 75.4469 91.2646 37.0469" stroke="#1D1D1D"/>
<path d="M193.313 117.822C192.594 124.086 182.063 132.208 176.888 135.486C159.923 148.714 149.625 133.769 146.206 130.562C142.786 127.355 144.372 111.901 147.342 108.994C150.312 106.088 149.795 102.621 148.285 97.5458C146.775 92.4701 147.21 79.7315 155.712 75.7793C164.215 71.827 156.96 68.0044 159.04 55.0464C161.119 42.0884 164.515 44.3251 169.222 45.0805C173.929 45.8359 174.74 45.241 178.928 36.9714C182.279 30.3557 187.178 27.9037 189.209 27.5046C201.358 25.3458 201.839 34.6064 201.772 37.2539C201.704 39.9015 200.887 43.8787 203.807 47.9722C206.726 52.0658 206.039 59.6889 204.078 62.9991C202.116 66.3093 199.213 66.5685 201.301 75.8452C203.389 85.1219 204.071 86.4398 194.336 96.9609C184.601 107.482 194.212 109.991 193.313 117.822Z" fill="#F3B03E"/>
<path opacity="0.3" d="M162.923 140.216C164.374 112.652 173.659 69.6528 185.265 47.3696" stroke="#1D1D1D"/>
<path d="M192.952 169.292C193.671 175.557 204.202 183.678 209.377 186.956C226.342 200.184 236.64 185.239 240.059 182.032C243.478 178.825 241.892 163.371 238.922 160.465C235.953 157.558 236.469 154.092 237.979 149.016C239.489 143.94 239.055 131.202 230.552 127.249C222.05 123.297 229.305 119.475 227.225 106.517C225.146 93.5587 221.749 95.7954 217.042 96.5507C212.335 97.3061 211.525 96.7112 207.337 88.4416C203.986 81.8259 199.086 79.3739 197.055 78.9748C184.907 76.8161 184.426 86.0766 184.493 88.7242C184.56 91.3717 185.377 95.3489 182.458 99.4425C179.538 103.536 180.225 111.159 182.187 114.469C184.149 117.78 187.051 118.039 184.964 127.315C182.876 136.592 182.193 137.91 191.929 148.431C201.664 158.952 192.053 161.461 192.952 169.292Z" fill="url(#paint0_linear)"/>
<path opacity="0.3" d="M223.341 191.686C221.891 164.122 212.606 121.123 201 98.8398" stroke="#1D1D1D"/>
<path d="M72.1336 190.578C75.8888 195.644 89.0693 197.412 95.1902 197.663C116.496 200.636 117.942 182.545 119.3 178.058C120.657 173.571 111.557 160.981 107.532 159.948C103.506 158.916 102.221 155.656 100.991 150.505C99.7605 145.354 93.0146 134.54 83.6752 135.368C74.3359 136.197 78.7073 129.259 70.4274 119.077C62.1475 108.894 60.3246 112.53 56.626 115.537C52.9274 118.545 51.9278 118.435 44.1659 113.367C37.9564 109.313 32.4871 109.64 30.5286 110.31C18.9282 114.514 23.142 122.775 24.524 125.034C25.906 127.293 28.6023 130.329 28.1207 135.334C27.6391 140.339 32.0455 146.597 35.3996 148.483C38.7536 150.369 41.3969 149.142 44.2273 158.22C47.0577 167.297 47.1255 168.78 60.817 173.024C74.5086 177.268 67.4397 184.246 72.1336 190.578Z" fill="#FAC568"/>
<path opacity="0.3" d="M109.648 194.777C94.6101 171.632 65.0696 139.036 43.8771 125.541" stroke="#1D1D1D"/>
<path d="M48.8958 116.046C51.7099 119.985 61.8047 121.522 66.5003 121.798C82.8165 124.369 84.1721 110.5 85.2754 107.074C86.3786 103.648 79.5631 93.8585 76.4868 93.0114C73.4105 92.1642 72.4677 89.6439 71.5933 85.6729C70.719 81.702 65.6869 73.3081 58.5058 73.8173C51.3247 74.3265 54.7748 69.0597 48.5566 61.1304C42.3383 53.201 40.8895 55.967 38.0092 58.2258C35.1289 60.4845 34.363 60.3867 28.473 56.3909C23.761 53.1943 19.5577 53.3706 18.0451 53.8583C9.08241 56.9289 12.2052 63.3275 13.2355 65.0807C14.2658 66.8339 16.2945 69.2011 15.8569 73.0368C15.4192 76.8725 18.7171 81.7369 21.2664 83.2302C23.8157 84.7235 25.8617 83.8175 27.9113 90.8249C29.961 97.8323 29.9929 98.9715 40.4463 102.415C50.8998 105.859 45.3782 111.121 48.8958 116.046Z" fill="#DC7F77"/>
<path d="M522.048 105.134C519.233 109.074 509.139 110.61 504.443 110.886C488.127 113.458 486.771 99.5889 485.668 96.1626C484.565 92.7362 491.38 82.9469 494.457 82.0997C497.533 81.2526 498.476 78.7323 499.35 74.7613C500.224 70.7904 505.256 62.3965 512.438 62.9057C519.619 63.4149 516.169 58.1481 522.387 50.2188C528.605 42.2894 530.054 45.0554 532.934 47.3142C535.814 49.5729 536.58 49.475 542.47 45.4793C547.182 42.2827 551.386 42.459 552.898 42.9467C561.861 46.0172 558.738 52.4159 557.708 54.1691C556.678 55.9223 554.649 58.2895 555.087 62.1252C555.524 65.9609 552.226 70.8253 549.677 72.3186C547.128 73.8118 545.082 72.9059 543.032 79.9133C540.982 86.9207 540.95 88.0598 530.497 91.5037C520.044 94.9476 525.565 100.209 522.048 105.134Z" fill="#DC7F77"/>
<path d="M479.23 98.8195C477.017 101.917 469.081 103.125 465.39 103.342C452.562 105.363 451.497 94.4602 450.629 91.7665C449.762 89.0729 455.12 81.3769 457.539 80.7109C459.957 80.0449 460.698 78.0635 461.386 74.9417C462.073 71.8199 466.029 65.2209 471.675 65.6212C477.32 66.0215 474.608 61.881 479.496 55.6472C484.385 49.4135 485.524 51.588 487.788 53.3638C490.053 55.1395 490.655 55.0626 495.285 51.9212C498.99 49.4082 502.294 49.5468 503.483 49.9302C510.53 52.3442 508.074 57.3746 507.264 58.7528C506.455 60.1311 504.86 61.9921 505.204 65.0076C505.548 68.0231 502.955 71.8473 500.951 73.0213C498.947 74.1952 497.338 73.483 495.727 78.992C494.116 84.5009 494.09 85.3965 485.872 88.1039C477.654 90.8114 481.995 94.9477 479.23 98.8195Z" fill="#F3B03E"/>
<path opacity="0.3" d="M77.6386 119.779C66.4079 101.806 44.172 76.3807 28.0856 65.733" stroke="#1D1D1D"/>
</g>
<defs>
<linearGradient id="paint0_linear" x1="216.294" y1="81.2332" x2="222.641" y2="192.828" gradientUnits="userSpaceOnUse">
<stop stop-color="#4B9A49"/>
<stop offset="1" stop-color="#115E63"/>
</linearGradient>
</defs>
</svg>
