<svg width="623" height="417" viewBox="0 0 623 417" fill="none" xmlns="http://www.w3.org/2000/svg">
<path d="M101.858 154.287C-31.2093 149.131 -51.6723 268.437 148.314 380.05C348.3 491.663 605.5 328.603 605.5 125.669C605.5 31.6053 396.455 165.702 101.858 154.287Z" fill="#146957"/>
<path d="M537.87 165.909C536.631 176.705 518.484 190.701 509.565 196.35C480.33 219.145 462.584 193.391 456.692 187.865C450.799 182.338 453.532 155.707 458.65 150.698C463.768 145.689 462.878 139.715 460.275 130.968C457.673 122.222 458.422 100.269 473.074 93.4586C487.726 86.6478 475.224 80.0605 478.808 57.7303C482.391 35.4001 488.244 39.2545 496.355 40.5562C504.467 41.8579 505.864 40.8327 513.081 26.582C518.855 15.1814 527.299 10.9558 530.799 10.2682C551.734 6.54799 552.563 22.5065 552.447 27.0689C552.331 31.6314 550.923 38.4852 555.954 45.5395C560.985 52.5938 559.802 65.7305 556.421 71.4349C553.04 77.1393 548.038 77.5859 551.636 93.5723C555.234 109.559 556.41 111.83 539.633 129.96C522.857 148.091 539.419 152.415 537.87 165.909Z" fill="url(#paint0_linear)"/>
<path opacity="0.3" d="M485.501 204.5C488.001 157 504.001 82.9005 524.001 44.5005" stroke="#1D1D1D"/>
<path d="M393.951 119.275C394.67 125.54 405.201 133.662 410.376 136.94C427.341 150.167 437.639 135.223 441.058 132.016C444.477 128.809 442.891 113.355 439.922 110.448C436.952 107.541 437.468 104.075 438.978 98.9994C440.488 93.9237 440.054 81.1851 431.551 77.2329C423.049 73.2806 430.304 69.4581 428.224 56.5001C426.145 43.5421 422.748 45.7788 418.041 46.5341C413.335 47.2895 412.524 46.6946 408.336 38.425C404.985 31.8093 400.085 29.3573 398.054 28.9582C385.906 26.7995 385.425 36.06 385.492 38.7076C385.559 41.3551 386.376 45.3323 383.457 49.4259C380.537 53.5194 381.224 61.1425 383.186 64.4527C385.148 67.7629 388.05 68.0221 385.963 77.2988C383.875 86.5755 383.192 87.8934 392.928 98.4145C402.663 108.936 393.052 111.445 393.951 119.275Z" fill="url(#paint1_linear)"/>
<path d="M26.9744 173.275C27.6936 179.54 38.2241 187.662 43.3994 190.94C60.3644 204.167 70.662 189.223 74.0814 186.016C77.5008 182.809 75.9149 167.355 72.9449 164.448C69.975 161.541 70.4917 158.075 72.0018 152.999C73.5119 147.924 73.077 135.185 64.5747 131.233C56.0724 127.281 63.327 123.458 61.2475 110.5C59.1681 97.5421 55.7718 99.7788 51.0649 100.534C46.358 101.289 45.5472 100.695 41.359 92.425C38.0084 85.8093 33.1087 83.3573 31.0776 82.9582C18.9291 80.7995 18.4482 90.06 18.5154 92.7076C18.5826 95.3551 19.3997 99.3323 16.4802 103.426C13.5607 107.519 14.2476 115.143 16.2094 118.453C18.1712 121.763 21.0738 122.022 18.9861 131.299C16.8984 140.576 16.2158 141.893 25.9511 152.415C35.6864 162.936 26.0753 165.445 26.9744 173.275Z" fill="url(#paint2_linear)"/>
<path opacity="0.3" d="M60.2151 189.26C58.4877 168.137 50.4039 135.341 41.0001 118.498" stroke="#1D1D1D"/>
<path opacity="0.3" d="M424.34 141.67C422.89 114.106 413.605 71.1064 401.999 48.8232" stroke="#1D1D1D"/>
<path d="M430.312 170.746C429.593 177.01 419.062 185.132 413.887 188.41C396.922 201.637 386.624 186.693 383.205 183.486C379.785 180.279 381.371 164.825 384.341 161.918C387.311 159.012 386.794 155.545 385.284 150.47C383.774 145.394 384.209 132.655 392.711 128.703C401.214 124.751 393.959 120.928 396.039 107.97C398.118 95.0123 401.514 97.249 406.221 98.0043C410.928 98.7597 411.739 98.1648 415.927 89.8952C419.278 83.2795 424.177 80.8275 426.209 80.4285C438.357 78.2697 438.838 87.5302 438.771 90.1778C438.704 92.8253 437.886 96.8025 440.806 100.896C443.725 104.99 443.039 112.613 441.077 115.923C439.115 119.233 436.212 119.492 438.3 128.769C440.388 138.046 441.07 139.364 431.335 149.885C421.6 160.406 431.211 162.915 430.312 170.746Z" fill="url(#paint3_linear)"/>
<path opacity="0.3" d="M399.922 193.14C401.373 165.576 410.658 122.577 422.264 100.293" stroke="#1D1D1D"/>
<path d="M552.13 187.033C548.374 192.098 535.194 193.867 529.073 194.118C507.767 197.091 506.321 179 504.963 174.513C503.606 170.026 512.706 157.435 516.732 156.403C520.757 155.371 522.043 152.11 523.273 146.96C524.503 141.809 531.249 130.994 540.588 131.823C549.927 132.651 545.556 125.713 553.836 115.531C562.116 105.349 563.939 108.984 567.637 111.992C571.336 114.999 572.335 114.89 580.097 109.822C586.307 105.768 591.776 106.094 593.735 106.764C605.335 110.969 601.121 119.229 599.739 121.489C598.357 123.748 595.661 126.784 596.143 131.788C596.624 136.793 592.218 143.052 588.864 144.937C585.51 146.823 582.866 145.596 580.036 154.674C577.205 163.752 577.138 165.235 563.446 169.478C549.755 173.722 556.824 180.701 552.13 187.033Z" fill="url(#paint4_linear)"/>
<path opacity="0.3" d="M514.615 191.232C529.653 168.087 559.194 135.49 580.386 121.995" stroke="#1D1D1D"/>
<path d="M574.368 117.499C571.554 121.439 561.459 122.976 556.763 123.251C540.447 125.823 539.092 111.954 537.988 108.528C536.885 105.101 543.701 95.3121 546.777 94.465C549.853 93.6178 550.796 91.0975 551.67 87.1265C552.545 83.1556 557.577 74.7617 564.758 75.2709C571.939 75.7801 568.489 70.5133 574.707 62.584C580.925 54.6547 582.374 57.4207 585.254 59.6794C588.135 61.9382 588.901 61.8403 594.791 57.8445C599.503 54.6479 603.706 54.8242 605.219 55.312C614.181 58.3825 611.058 64.7811 610.028 66.5343C608.998 68.2875 606.969 70.6547 607.407 74.4904C607.844 78.3261 604.547 83.1905 601.997 84.6838C599.448 86.1771 597.402 85.2711 595.352 92.2785C593.303 99.2859 593.271 100.425 582.817 103.869C572.364 107.313 577.885 112.574 574.368 117.499Z" fill="url(#paint5_linear)"/>
<path opacity="0.3" d="M545.625 121.233C556.856 103.26 579.092 77.8343 595.178 67.1866" stroke="#1D1D1D"/>
<defs>
<linearGradient id="paint0_linear" x1="497.645" y1="14.1599" x2="486.708" y2="206.469" gradientUnits="userSpaceOnUse">
<stop stop-color="#3AB299"/>
<stop offset="1" stop-color="#115E63"/>
</linearGradient>
<linearGradient id="paint1_linear" x1="417.293" y1="31.2166" x2="423.64" y2="142.812" gradientUnits="userSpaceOnUse">
<stop stop-color="#3AB27F"/>
<stop offset="1" stop-color="#115E63"/>
</linearGradient>
<linearGradient id="paint2_linear" x1="35.3561" y1="81.2294" x2="53.9295" y2="196.967" gradientUnits="userSpaceOnUse">
<stop stop-color="#429382"/>
<stop offset="1" stop-color="#35939F"/>
</linearGradient>
<linearGradient id="paint3_linear" x1="406.97" y1="82.6868" x2="400.623" y2="194.282" gradientUnits="userSpaceOnUse">
<stop stop-color="#4B9A49"/>
<stop offset="1" stop-color="#115E63"/>
</linearGradient>
<linearGradient id="paint4_linear" x1="575.944" y1="99.1005" x2="514.65" y2="192.571" gradientUnits="userSpaceOnUse">
<stop stop-color="#4B9A49"/>
<stop offset="1" stop-color="#115E63"/>
</linearGradient>
<linearGradient id="paint5_linear" x1="591.457" y1="49.67" x2="545.67" y2="122.26" gradientUnits="userSpaceOnUse">
<stop stop-color="#3A8EB2"/>
<stop offset="1" stop-color="#115E63"/>
</linearGradient>
</defs>
</svg>
