<svg width="45" height="47" viewBox="0 0 45 47" fill="none" xmlns="http://www.w3.org/2000/svg">
<path d="M7.23897 16.1555C-0.345974 29.7006 7.2454 35.0868 11.206 36.8851C11.2922 36.9242 11.376 36.83 11.3339 36.7452C9.3831 32.818 10.1165 27.5947 12.8738 24.7809C15.6265 21.9718 15.4656 18.1333 15.3473 16.2826C15.3431 16.2175 15.4014 16.167 15.4652 16.1805C18.4806 16.817 20.9315 20.1054 20.9734 23.9617C20.974 24.0169 21.0192 24.0627 21.0708 24.0429C21.7232 23.7931 22.5924 21.1557 22.4335 19.6879C22.4231 19.5921 22.5413 19.5237 22.6137 19.5873C27.7429 24.0968 27.3198 32.6026 24.2648 36.4613C24.1928 36.5523 24.3248 36.686 24.4236 36.6252C39.915 27.0998 27.1383 8.72311 25.3912 6.34777C25.3329 6.26854 25.2103 6.31467 25.2133 6.41297C25.2494 7.60217 25.2498 11.7192 23.549 12.1782C23.4914 12.1937 23.4361 12.1502 23.4319 12.0908C23.013 6.07119 16.826 0.437159 13.3102 1.04511C13.2612 1.05358 13.2282 1.09956 13.2309 1.14919C13.5578 7.18461 11.4448 8.64466 7.23897 16.1555Z" stroke="#117592" stroke-width="1.5"/>
<g opacity="0.1" filter="url(#filter0_d)">
<rect y="2" width="35" height="35" rx="17.5" fill="#117592"/>
</g>
<defs>
<filter id="filter0_d" x="0" y="2" width="45" height="45" filterUnits="userSpaceOnUse" color-interpolation-filters="sRGB">
<feFlood flood-opacity="0" result="BackgroundImageFix"/>
<feColorMatrix in="SourceAlpha" type="matrix" values="0 0 0 0 0 0 0 0 0 0 0 0 0 0 0 0 0 0 127 0"/>
<feOffset dx="5" dy="5"/>
<feGaussianBlur stdDeviation="2.5"/>
<feColorMatrix type="matrix" values="0 0 0 0 0.341176 0 0 0 0 0.333333 0 0 0 0 0.419608 0 0 0 0.1 0"/>
<feBlend mode="normal" in2="BackgroundImageFix" result="effect1_dropShadow"/>
<feBlend mode="normal" in="SourceGraphic" in2="effect1_dropShadow" result="shape"/>
</filter>
</defs>
</svg>
