<svg width="218" height="193" viewBox="0 0 218 193" fill="none" xmlns="http://www.w3.org/2000/svg">
<path d="M92.4713 118.04C111.314 88.0161 118.015 50.5792 119.016 17.4434" stroke="white"/>
<path d="M120.485 8.45307C133.529 12.2738 153.353 23.4933 143.278 39.8915C132.637 57.2111 117.413 24.5953 120.485 8.45307Z" fill="white" stroke="white"/>
<path d="M116.628 49.9848C128.792 56.0485 146.324 70.5921 133.511 84.9537C119.98 100.122 110.754 65.3309 116.628 49.9848Z" fill="white" stroke="white"/>
<path d="M104.04 90.4871C115.377 97.9838 131.012 114.55 116.55 127.248C101.275 140.66 96.3446 105.006 104.04 90.4871Z" fill="white" stroke="white"/>
<path d="M92.3479 118.038C93.3617 131.592 89.8359 154.096 70.9412 150.436C50.9848 146.57 76.157 120.843 92.3479 118.038Z" fill="white" stroke="white"/>
<path d="M107.636 81.2064C102.261 93.6902 88.7187 112.006 73.6641 100.016C57.7637 87.3523 91.9857 76.1982 107.636 81.2064Z" fill="white" stroke="white"/>
<path d="M116.978 41.7748C113.643 54.3082 103.661 73.2061 88.6765 62.987C72.85 52.1937 102.296 38.3486 116.978 41.7748Z" fill="white" stroke="white"/>
<path d="M192.81 105.206C195.415 99.2712 190.242 86.3994 187.33 80.7054C179.071 59.8419 162.155 67.5184 157.448 68.5133C152.74 69.5082 146.146 84.0465 147.286 88.2223C148.426 92.398 146.169 95.1883 142.194 98.8677C138.219 102.547 132.007 114.06 137.533 122.146C143.059 130.232 134.616 129.703 129.755 142.298C124.894 154.893 129.078 154.744 133.662 156.615C138.247 158.485 138.66 159.449 138.107 169.03C137.664 176.695 140.758 181.51 142.361 182.959C152.064 191.424 157.29 183.484 158.602 181.103C159.914 178.723 161.247 174.761 165.968 172.711C170.69 170.662 174.027 163.542 173.995 159.553C173.962 155.564 171.511 153.768 178.177 146.681C184.843 139.594 186.134 138.795 182.913 124.228C179.692 109.661 189.553 112.624 192.81 105.206Z" fill="white"/>
<path opacity="0.3" d="M176.374 56.419C164.162 85.7664 152.384 135.22 153.317 164.402" stroke="#4E4E4E"/>
</svg>
