<svg width="203" height="224" viewBox="0 0 203 224" fill="none" xmlns="http://www.w3.org/2000/svg">
<path d="M97.5507 187.347C114.109 160.962 119.998 128.063 120.878 98.9438" stroke="white"/>
<path d="M122.169 91.0436C133.632 94.4012 151.053 104.261 142.199 118.671C132.848 133.891 119.469 105.229 122.169 91.0436Z" fill="white" stroke="white"/>
<path d="M118.779 127.541C129.468 132.87 144.875 145.651 133.616 158.271C121.724 171.601 113.617 141.027 118.779 127.541Z" fill="white" stroke="white"/>
<path d="M107.717 163.134C117.68 169.722 131.42 184.279 118.711 195.439C105.288 207.225 100.955 175.893 107.717 163.134Z" fill="white" stroke="white"/>
<path d="M97.4418 187.345C98.3327 199.256 95.2343 219.033 78.6299 215.816C61.0925 212.419 83.2135 189.81 97.4418 187.345Z" fill="white" stroke="white"/>
<path d="M110.877 154.978C106.153 165.949 94.2528 182.045 81.0231 171.508C67.0501 160.379 97.1239 150.577 110.877 154.978Z" fill="white" stroke="white"/>
<path d="M119.087 120.326C116.156 131.341 107.384 147.948 94.2159 138.967C80.3078 129.482 106.185 117.315 119.087 120.326Z" fill="white" stroke="white"/>
<path d="M109.339 58.7661C112.462 51.6528 106.262 36.2247 102.772 29.3998C92.8727 4.39282 72.5974 13.5938 66.955 14.7863C61.3125 15.9788 53.4088 33.4045 54.7748 38.4096C56.1407 43.4147 53.4365 46.7591 48.6721 51.1692C43.9077 55.5793 36.4614 69.3791 43.085 79.0709C49.7086 88.7627 39.589 88.1286 33.7623 103.225C27.9356 118.321 32.9508 118.143 38.4455 120.385C43.9401 122.627 44.4363 123.782 43.7727 135.266C43.2417 144.454 46.9505 150.224 48.8713 151.961C60.5017 162.107 66.766 152.59 68.3384 149.737C69.9107 146.884 71.5082 142.135 77.1674 139.678C82.8266 137.222 86.8272 128.688 86.7883 123.906C86.7493 119.125 83.8111 116.973 91.801 108.478C99.7909 99.9833 101.338 99.0261 97.4774 81.566C93.6166 64.1059 105.436 67.6576 109.339 58.7661Z" fill="white"/>
<path opacity="0.3" d="M89.6393 0.290469C75.003 35.4663 60.886 94.742 62.0038 129.719" stroke="#4E4E4E"/>
</svg>
