<svg width="25" height="25" viewBox="0 0 25 25" fill="none" xmlns="http://www.w3.org/2000/svg">
<rect x="0.5" y="0.5" width="24" height="24" rx="12" fill="white" stroke="#4E4E4E"/>
<mask id="mask0" mask-type="alpha" maskUnits="userSpaceOnUse" x="1" y="1" width="23" height="23">
<rect x="1" y="1" width="23" height="23" rx="11.5" fill="#5EAD44"/>
</mask>
<g mask="url(#mask0)">
<path opacity="0.05" d="M13.814 8.53137C9.06338 3.84298 2.7238 8.09025 0.14784 10.7999L-0.50293 19.8741H26.8294V3.04883C24.4704 6.82984 18.5646 13.2198 13.814 8.53137Z" fill="#1D1D1D"/>
<path d="M-1.79016 74.6156C-3.04961 71.1915 -2.78702 65.3376 -0.489782 52.9388L0.241987 50.1715C0.241987 50.1715 -2.39464 39.2934 -1.7901 37.1308L-1.63897 36.41C-6.37451 40.5549 -16.2385 51.2597 -17.8103 60.9193L-20.833 55.8732C-20.2788 48.0038 -15.1806 29.9582 0.779177 20.7312L2.59278 19.8301C3.44921 19.0492 5.61547 17.5234 7.42908 17.6675L8.18475 15.8653L10.1495 15.5049L10.6029 12.6215C10.2502 11.2398 9.75654 8.08004 10.6029 6.49414C11.4492 4.90824 12.1646 4.75206 12.4165 4.8722L19.2175 4.51172C19.4191 5.4128 19.4291 7.28704 17.8573 7.57538C17.7062 8.29624 17.3737 9.81006 17.2528 10.0984C17.2528 11.2998 16.9505 13.8469 15.7415 14.4236L14.5553 15.1197L15.1369 16.5862L16.6483 17.6675L17.4657 19.9319C18.0702 20.1121 19.7616 20.9834 21.3334 23.4343C23.2982 26.498 26.6231 38.2122 32.9707 48.8448C37.3043 56.1038 38.6441 57.8418 38.8499 57.822C38.8556 57.7713 38.8606 57.7223 38.865 57.6753C38.8871 57.7634 38.8853 57.8186 38.8499 57.822C38.7247 58.9404 38.2789 60.9193 37.3536 60.9193C33.8776 58.6365 25.7465 51.9805 21.0312 43.6185L20.5778 43.2581L20.2755 43.6185V45.7811C20.2755 48.0975 20.5777 51.3554 19.4791 52.209C19.5242 64.2052 20.4772 77.223 20.5778 79.3815L-1.79016 74.6156Z" fill="#002D3A"/>
<path d="M13.755 18.1779L10.0962 15.5148L10.5785 12.669C10.5862 12.0985 10.5969 10.9334 10.5785 10.837C10.5556 10.7165 11.4046 8.49887 11.4505 8.30603C11.4873 8.15176 12.7815 7.64711 13.424 7.41406H17.2332V9.94492C17.4168 12.4132 16.5679 13.9447 15.8264 14.4149C15.7639 14.6306 14.5917 14.9472 15.1269 16.6193C15.5286 17.8741 14.0291 18.1731 13.755 18.1779Z" fill="#DEB1AA"/>
<path d="M16.9139 7.5139C17.3328 7.83518 17.2775 9.26902 17.1975 9.94577C17.6188 9.94577 18.0001 7.69933 18.0001 7.5139C20.0234 7.42506 19.2684 4.39963 19.1349 4.21757C19.0014 4.03552 14.7292 4.39979 12.8824 4.58184C11.4049 4.72749 11.2135 4.94587 11.3025 5.03686C8.72141 6.90294 9.81161 11.7502 10.4124 12.5922C11.0132 13.4342 12.167 11.5732 11.7998 11.5732C11.4214 10.9599 11.0751 9.73339 12.7177 9.73339C12.9233 9.56348 13.195 8.41102 13.3051 7.85603L16.9139 7.5139Z" fill="#1D1D1D"/>
<path d="M13.9729 18.1502C13.6063 19.8517 12.2759 21.7547 12.2759 21.7547C11.082 21.6409 8.42069 18.9902 7.23926 17.6791L8.13524 15.8253L10.101 15.4863C10.7269 16.0668 12.8377 17.4598 13.6144 17.9619C14.3911 18.464 14.869 17.0676 15.1033 16.5496L16.673 17.6791L17.4758 19.9292L13.9729 18.1502Z" fill="white"/>
</g>
</svg>
