<svg width="25" height="25" viewBox="0 0 25 25" fill="none" xmlns="http://www.w3.org/2000/svg">
<rect x="0.5" y="0.5" width="24" height="24" rx="12" fill="white" stroke="#4E4E4E"/>
<mask id="mask0" mask-type="alpha" maskUnits="userSpaceOnUse" x="1" y="1" width="23" height="23">
<rect x="1" y="1" width="23" height="23" rx="11.5" fill="#5EAD44"/>
</mask>
<g mask="url(#mask0)">
<path opacity="0.05" d="M13.814 8.53137C9.06338 3.84298 2.7238 8.09025 0.14784 10.7999L-0.50293 19.8741H26.8294V3.04883C24.4704 6.82984 18.5646 13.2198 13.814 8.53137Z" fill="#1D1D1D"/>
<path d="M11.5237 16.4152C9.55672 15.184 6.18556 21.4612 2.37262 22.5267C-0.232159 22.5304 -5.40597 19.8351 -5.88484 16.7552C-6.69061 11.5728 -5.74937 11.2495 -4.67637 12.4996C-3.21838 14.1982 0.60458 15.4319 1.72236 14.5262C2.16865 14.1646 2.21218 6.75355 4.3537 8.75227C6.49521 10.751 8.71714 6.57442 11.0764 4.43103C13.4356 2.28765 14.4188 3.09505 15.2615 3.78711C15.9357 4.34076 17.1941 4.49424 17.6159 4.52064C20.5686 5.02503 19.4372 8.89672 19.0127 10.4685C18.5882 12.0403 18.9401 11.8492 18.6545 14.4953C18.426 16.6121 17.1022 17.7014 16.4689 17.9815C15.2769 18.3121 12.9165 18.6008 11.8678 17.7396C11.4211 17.596 11.108 17.5447 10.8987 17.5386C10.3266 17.5219 10.5301 17.8427 10.8987 17.5386C11.091 17.3799 11.3283 17.051 11.5237 16.4152Z" fill="#1D1D1D"/>
<path d="M15.9727 15.6638C16.1938 16.8691 15.8861 18.0252 15.8861 18.0252L14.8507 17.2715C14.5058 15.1891 14.3591 14.5904 13.9154 14.5858C18.8896 14.5097 17.2467 9.17788 15.8035 6.52146L15.1921 6.18328L16.3025 5.98156L17.2929 7.23975C19.3396 11.3647 18.3862 14.9856 15.9727 15.6638Z" fill="url(#paint0_linear)"/>
<path d="M14.1115 14.4933C15.0025 15.0714 15.0928 16.8502 15.1244 17.5461C16.2047 21.6969 10.8011 19.0938 9.94575 18.6557L10.2275 16.2683L11.2999 12.2385L10.6475 10.5641C10.0918 8.76572 11.5742 9.19572 12.3849 9.63552C12.636 9.53064 12.7465 8.68998 12.7708 8.2616C14.0212 7.9981 15.0672 6.71356 15.4338 6.10422L15.9877 6.44049C19.4159 12.7587 16.6608 14.783 14.1115 14.4933Z" fill="#DEB1AA"/>
<path opacity="0.07" d="M11.9382 14.5705C12.5822 15.6437 13.3918 18.049 13.716 19.1175C12.9614 19.458 10.8369 18.0849 9.86899 17.3557L11.0444 13.563C11.074 13.4517 11.2943 13.4973 11.9382 14.5705Z" fill="#1D1D1D"/>
<path d="M9.00047 9.74516C8.38872 8.32997 10.5985 8.78988 11.2786 9.24336C9.86263 9.1751 10.8514 10.9298 11.3004 12.2373C11.0531 13.6699 9.95389 16.9173 9.71005 17.0703C9.304 17.325 4.30078 28.2059 -5.57808 18.0146L1.36049 18.7635L7.80341 15.045C9.01599 14.7463 10.4033 12.9903 9.00047 9.74516Z" fill="url(#paint1_linear)"/>
<path d="M21.7321 24.2993C22.029 20.456 19.5138 18.1935 18.4984 17.5489C17.8166 16.5073 16.7067 16.1136 15.5343 22.4849C13.4805 33.6457 28.0174 44.8554 28.3323 44.3343C28.5842 43.9175 29.2949 43.5183 30.112 43.1344C28.1745 40.3195 21.1438 31.9146 21.7321 24.2993Z" fill="#DC7F77"/>
<path d="M5.50385 45.3763C5.08645 49.7346 4.88915 48.3995 6.79915 47.8927L21.6514 43.8277C23.5319 42.7646 20.198 39.9768 20.752 34.7915C22.3872 24.9959 23.6921 18.5627 14.9247 16.0557C15.282 19.4003 12.0937 18.3569 9.8623 16.27C2.68824 16.27 3.32108 31.3261 5.50385 37.9864C6.74038 43.0825 5.50385 45.3763 5.50385 45.3763Z" fill="#DC7F77"/>
<path d="M-6.71135 42.664C-4.13521 40.6499 3.57807 18.734 8.13923 16.5557C12.5039 16.5557 11.2129 19.2382 10.8441 22.323C10.4752 25.4079 -4.228 44.7695 -4.96568 44.5683C-5.55582 44.4074 -6.26048 43.4463 -6.71135 42.664Z" fill="#DC7F77"/>
</g>
<defs>
<linearGradient id="paint0_linear" x1="15.757" y1="11.9576" x2="19.3782" y2="17.8663" gradientUnits="userSpaceOnUse">
<stop/>
<stop offset="1" stop-opacity="0"/>
</linearGradient>
<linearGradient id="paint1_linear" x1="9.28025" y1="8.75569" x2="9.93513" y2="16.2288" gradientUnits="userSpaceOnUse">
<stop stop-opacity="0"/>
<stop offset="1"/>
</linearGradient>
</defs>
</svg>
