<svg width="88" height="62" viewBox="0 0 88 62" fill="none" xmlns="http://www.w3.org/2000/svg">
<path d="M86.4986 30.0424C86.7034 31.9299 83.9831 34.8102 81.5463 34.8064C79.8309 34.8064 77.6574 34.0081 77.3622 30.8087C76.8258 25.0028 80.6096 20.9107 80.5475 20.3463C80.4853 19.782 79.4189 19.2289 78.826 19.2931C78.826 19.2931 78.7829 19.3365 78.7054 19.4196C78.3591 18.2512 76.6813 17.6944 75.6763 17.768C74.1978 17.8794 72.2899 20.1123 71.419 21.8318C70.7849 21.9205 70.1625 22.0742 69.5598 22.2904C70.0094 18.9194 68.5437 18.0983 67.067 18.2588C66.1358 18.3504 65.241 18.6713 64.4629 19.1931C64.4789 19.0951 64.4826 18.9956 64.4746 18.8967C64.3934 18.1417 61.7992 17.1697 61.9025 18.1417C62.0907 19.8405 57.7634 25.7861 55.9817 31.6996C55.7823 31.8318 55.7146 31.8148 55.4794 31.7506C54.5895 31.5071 53.7692 28.8307 52.8812 27.9189C54.3186 27.1847 59.1068 22.6566 59.231 20.7653C59.2761 20.0802 56.8548 18.5003 56.5405 19.4686C55.9761 21.2108 52.8304 25.7653 50.8963 26.6411C51.7561 23.6532 53.2612 20.9975 53.2405 20.8088C53.201 20.4313 51.709 19.8537 50.6536 20.0217C50.2283 20.0896 48.8417 23.2927 48.0195 25.6408C45.8935 29.0798 39.1072 36.9054 38.5202 36.9658C38.0913 37.013 37.811 35.9522 37.811 34.9725C37.811 29.7366 43.1505 23.9722 45.2238 23.7476C45.7882 23.6853 46.8738 24.6328 46.7703 23.6778C46.6235 22.3169 44.9641 21.5014 43.935 21.5449C39.8128 21.7185 36.1534 26.4127 34.9813 29.1421C33.4761 31.7525 28.2778 38.0454 26.5149 40.3481C26.4914 40.379 26.4584 40.4012 26.421 40.4114C26.3837 40.4217 26.344 40.4193 26.3081 40.4047C26.2723 40.3902 26.2421 40.3642 26.2223 40.3308C26.2026 40.2974 26.1944 40.2584 26.1988 40.2198C27.1865 32.1243 34.4056 24.2629 34.4112 23.3625C34.4112 22.5641 32.8685 21.9885 31.4555 22.1414C29.7321 22.3301 18.0221 39.1987 14.2386 43.0209C14.2005 43.0589 14.1522 43.0849 14.0995 43.0957C14.0469 43.1064 13.9922 43.1014 13.9424 43.0814C13.8925 43.0613 13.8496 43.027 13.819 42.9827C13.7884 42.9384 13.7714 42.886 13.7701 42.8321C13.4559 32.583 34.7518 12.9039 34.8891 11.2788C34.9794 10.1973 32.4602 9.39125 31.2317 9.42901C21.911 9.72345 0 27.5943 0 31.9035C0 33.9797 3.6462 36.6958 3.62551 35.3595C3.54649 30.6408 24.2911 11.3675 30.8741 11.6789C28.5431 13.1455 7.90388 31.4165 7.02332 44.5327C6.76372 48.4021 10.0675 49.361 12.3215 49.361C13.8567 49.361 15.5687 48.3832 22.4661 37.4697C22.2647 38.3172 22.024 40.4803 22.0729 40.9465C22.2742 42.8057 24.9289 43.8797 26.5713 43.6721C27.3992 43.5701 30.8986 38.1624 33.6398 34.6121C33.5834 37.3905 35.3219 39.7083 39.1223 39.3044C40.904 39.1156 45.3554 32.9774 46.648 30.5407C46.3225 31.9054 45.6697 33.589 45.7769 34.58C45.8239 35.0235 48.9753 36.9922 48.7665 35.0405C48.6461 33.9269 49.5191 31.4543 50.0703 29.2931C51.8295 29.8461 52.1719 35.2236 55.1709 34.8989L55.265 34.865C55.0354 36.1749 54.8886 37.2678 55.0241 38.4927C55.0937 39.1345 55.4944 39.3233 55.6732 39.814C36.0819 42.2149 10.5492 54.159 5.17015 55.4161C3.17584 55.8785 3.06295 54.8782 2.7243 55.3331C1.79676 56.5561 4.91426 61.6861 7.90947 61.2598C16.6111 60.0216 34.1798 45.9409 58.58 41.7827L58.3919 40.703C58.0757 27.868 66.134 19.6649 66.9655 20.352C67.3419 20.671 67.2761 21.811 66.9465 23.4928C63.771 26.0428 60.9111 29.193 61.2799 32.6245C61.3401 33.1908 61.7033 35.0914 63.5373 34.8272C66.2053 34.4497 68.5099 28.4361 69.3119 24.0798C69.7197 23.754 70.1822 23.5029 70.6773 23.338C70.2222 24.6593 69.7369 25.822 69.7369 27.6283C69.7369 28.2418 69.7652 31.6109 72.5083 31.6109C73.4487 31.6109 74.3331 30.9503 75.1683 29.9877C75.5183 33.0435 76.8615 34.631 78.6132 35.7615C74.4567 36.1351 70.3292 36.7845 66.2582 37.7057C64.8922 37.8548 64.8787 40.3482 65.4187 40.4803C77.6635 37.4471 83.7309 37.734 85.0686 37.532C85.6873 37.4395 85.3355 36.7053 84.7525 35.7918C87.3412 34.5875 87.7625 32.583 87.9507 31.8091C88.3271 30.1613 86.4229 29.3365 86.4986 30.0424ZM63.2685 33.3493C63.1142 33.3663 63.0016 32.9718 62.9635 32.6207C62.8134 31.2315 64.3541 28.4248 66.3505 25.8899C65.3529 29.444 63.9721 33.2719 63.2685 33.3493ZM72.5925 29.5422C72.3201 29.5837 72.1866 29.1232 72.1675 28.8269C71.9043 24.6045 75.3301 20.0406 76.3578 19.7235C77.0614 19.5064 77.3566 19.9122 77.3923 20.2368C77.4132 20.4445 77.8062 20.2803 78.043 20.4256C77.6352 20.9786 76.8597 22.2357 76.7262 22.5018C75.53 24.5668 73.3792 29.4252 72.5925 29.5422Z" fill="#146957"/>
<path d="M57.9964 0.0917344C58.6431 0.393502 59.864 3.23408 59.6994 4.35442C58.7196 11.0023 40.9823 9.65434 37.9977 16.5064C37.1158 18.5357 35.8205 16.071 36.2164 15.1078C38.9736 8.42195 55.8976 6.56075 56.9774 0.711519C57.1028 0.0320916 57.5241 -0.126911 57.9964 0.0917344Z" fill="#146957"/>
<path d="M65.7756 9.93883C65.8203 9.90718 65.8703 9.88465 65.9228 9.87236C65.9741 9.85834 66.0272 9.85133 66.0797 9.85151C66.1798 9.85021 66.2787 9.87162 66.3698 9.91419C66.456 9.9577 66.5302 10.023 66.5857 10.104L67.0725 9.65788C67.02 9.59104 66.9579 9.53283 66.8879 9.4851C66.8143 9.43403 66.7353 9.39195 66.6521 9.3598C66.5658 9.32498 66.4772 9.29892 66.3861 9.28198C66.2968 9.26392 66.2057 9.25498 66.1152 9.25535C65.9524 9.25442 65.7907 9.27875 65.6351 9.32753C65.4933 9.37308 65.3606 9.44377 65.2424 9.53636C65.1314 9.6253 65.041 9.73806 64.9764 9.86672C64.9107 10.0008 64.8769 10.1492 64.8787 10.2995C64.8763 10.4114 64.8962 10.5226 64.9378 10.6261C64.974 10.7136 65.0265 10.7929 65.0928 10.8596C65.1604 10.926 65.2376 10.9812 65.3214 11.0229C65.4137 11.0697 65.5084 11.1103 65.6055 11.1444C65.7286 11.1832 65.8444 11.2408 65.9506 11.3152C65.9916 11.3435 66.0254 11.382 66.0477 11.4272C66.07 11.4723 66.0815 11.5226 66.0797 11.5734C66.0821 11.635 66.0676 11.6958 66.0392 11.75C66.0127 11.798 65.9753 11.839 65.9307 11.8696C65.8824 11.902 65.8281 11.9245 65.772 11.936C65.7111 11.9499 65.6496 11.9569 65.5874 11.9569C65.462 11.9558 65.3389 11.9253 65.2273 11.8677C65.12 11.8171 65.0277 11.7378 64.9601 11.6379L64.4287 12.0822C64.4914 12.1639 64.5662 12.2355 64.6501 12.2948C64.7369 12.3579 64.831 12.4096 64.9306 12.4486C65.0325 12.4887 65.1381 12.5192 65.246 12.5398C65.3546 12.5594 65.4644 12.5695 65.5742 12.5701C65.7244 12.57 65.874 12.5502 66.0187 12.5113C66.1641 12.4738 66.3016 12.4094 66.4247 12.3214C66.5459 12.2368 66.6467 12.1251 66.7202 11.9949C66.7993 11.8468 66.8391 11.6797 66.8348 11.5108C66.8367 11.4024 66.818 11.2947 66.7794 11.1937C66.7414 11.0993 66.6853 11.0134 66.6153 10.9412C66.5357 10.8662 66.447 10.8024 66.3511 10.7514C66.2371 10.6901 66.1183 10.6374 65.997 10.5938C65.8957 10.5609 65.7998 10.5122 65.7129 10.4495C65.6803 10.4256 65.6544 10.3939 65.6363 10.3572C65.6188 10.3204 65.6104 10.2798 65.611 10.2388C65.6092 10.1777 65.6248 10.1174 65.6574 10.0661C65.6864 10.0147 65.7268 9.9711 65.7756 9.93883ZM67.2758 9.33131L67.163 9.96732H68.0189L67.5931 12.479H68.3091L68.7409 9.96732H69.5782L69.6855 9.33131H67.2758ZM71.8534 9.33131L71.5211 11.2469C71.5078 11.3275 71.4885 11.4069 71.4625 11.4842C71.4366 11.5615 71.398 11.6335 71.3479 11.6968C71.2943 11.7627 71.2279 11.8159 71.1525 11.8525C71.0584 11.8958 70.9565 11.9165 70.8533 11.9132C70.7725 11.9152 70.6917 11.9016 70.6151 11.8734C70.5541 11.8506 70.4992 11.8135 70.4546 11.7652C70.4148 11.7196 70.3846 11.6659 70.3665 11.6076C70.3472 11.5462 70.3382 11.4821 70.3388 11.4178C70.3388 11.3912 70.3388 11.3627 70.3388 11.3285C70.3406 11.2973 70.3442 11.2662 70.3497 11.2355L70.6784 9.33702H69.9642L69.6282 11.3114C69.6282 11.3551 69.6174 11.4007 69.6132 11.4481C69.6095 11.4956 69.6132 11.5392 69.6132 11.581C69.6113 11.7223 69.6397 11.8625 69.6964 11.9911C69.7525 12.1118 69.8351 12.2172 69.9383 12.2987C70.0523 12.3859 70.1814 12.4503 70.3183 12.4885C70.4812 12.5359 70.6494 12.5589 70.8183 12.5568C71.0065 12.5604 71.1935 12.5301 71.3721 12.4676C71.5253 12.4127 71.6664 12.3283 71.7889 12.2189C71.9065 12.1127 72.0024 11.9836 72.0712 11.8392C72.146 11.678 72.1984 11.5067 72.2262 11.3304L72.5622 9.34081L71.8534 9.33131ZM75.1746 9.63697C75.0365 9.5296 74.879 9.45091 74.7119 9.40535C74.5443 9.35645 74.3711 9.33156 74.1968 9.33131H73.064L72.5254 12.479H73.7746C74.0261 12.4814 74.2758 12.4377 74.5123 12.3499C74.7313 12.27 74.9321 12.1454 75.1028 11.9835C75.2705 11.824 75.4038 11.6299 75.4943 11.414C75.5908 11.1734 75.6385 10.9149 75.6342 10.6545C75.6403 10.4446 75.595 10.2365 75.5033 10.0489C75.4225 9.88689 75.3079 9.74545 75.1674 9.63504L75.1746 9.63697ZM74.8241 11.1557C74.7777 11.2894 74.7041 11.4115 74.6088 11.5142C74.5135 11.6168 74.3983 11.6978 74.2704 11.7519C74.1202 11.8151 73.9592 11.8462 73.7963 11.843H73.3349L73.6546 9.96353H74.0605C74.186 9.96105 74.3108 9.98234 74.4291 10.0262C74.5274 10.0628 74.6166 10.1204 74.6914 10.1951C74.7602 10.2657 74.8127 10.3514 74.8447 10.4457C74.8778 10.5433 74.8947 10.646 74.8941 10.7495C74.8923 10.8856 74.8676 11.0203 74.8223 11.1482L74.8241 11.1557ZM75.7265 12.4846H76.4479L76.9866 9.33895H76.2652L75.7265 12.4846ZM79.9573 9.63697C79.8234 9.51135 79.6648 9.41628 79.4923 9.35788C79.2926 9.2888 79.0833 9.25541 78.8728 9.2592C78.6224 9.25672 78.3751 9.30786 78.1453 9.40914C77.93 9.50416 77.7358 9.64299 77.5735 9.81732C77.4131 9.99382 77.2876 10.2008 77.2043 10.4268C77.1139 10.6689 77.0686 10.9266 77.0716 11.1861C77.0698 11.3809 77.1042 11.5743 77.173 11.7557C77.2387 11.9222 77.3389 12.0719 77.4667 12.1942C77.6025 12.3199 77.7617 12.4155 77.9354 12.4752C78.1375 12.5427 78.3498 12.5754 78.5627 12.572C78.8125 12.5754 79.0604 12.5242 79.2896 12.422C79.5037 12.327 79.6973 12.1881 79.8578 12.0139C80.0182 11.8373 80.1437 11.6304 80.2269 11.4045C80.315 11.1656 80.3596 10.912 80.3578 10.6564C80.3603 10.4616 80.3259 10.2681 80.2565 10.0869C80.1938 9.9132 80.0942 9.75625 79.9652 9.62747L79.9573 9.63697ZM79.5351 11.1557C79.4917 11.2938 79.4241 11.4224 79.3354 11.5354C79.2498 11.6471 79.1418 11.7384 79.0182 11.8032C78.8867 11.871 78.7413 11.9056 78.5941 11.9038C78.4789 11.9062 78.3649 11.8849 78.2581 11.8411C78.1664 11.8029 78.0832 11.7453 78.0144 11.6721C77.9475 11.6005 77.8962 11.5151 77.863 11.4215C77.828 11.3224 77.8106 11.2176 77.8118 11.1121C77.8118 10.963 77.8353 10.8149 77.8817 10.6736C77.9282 10.536 77.9963 10.4076 78.0844 10.2939C78.1725 10.1837 78.281 10.0927 78.4041 10.0262C78.5205 9.9667 78.6472 9.93225 78.7769 9.92512C78.9066 9.91792 79.0369 9.93809 79.1587 9.98439C79.2504 10.0224 79.3336 10.0799 79.4024 10.1534C79.4675 10.2266 79.5182 10.3124 79.5514 10.4058C79.587 10.5043 79.6045 10.6085 79.6032 10.7134C79.6014 10.8587 79.5779 11.0028 79.5333 11.1406L79.5351 11.1557ZM67.689 8.48654C67.9073 8.40592 68.1082 8.2813 68.2795 8.12006C68.4472 7.96081 68.5805 7.76669 68.6704 7.55053C68.7681 7.31023 68.8157 7.05155 68.8109 6.79114C68.8163 6.58063 68.7711 6.37204 68.68 6.18366C68.5998 6.02307 68.4852 5.88295 68.3458 5.77359C68.2071 5.66634 68.0497 5.58711 67.8826 5.54008C67.7149 5.49272 67.5418 5.46846 67.3681 5.46794H66.2347L65.6978 8.6137H66.9452C67.1986 8.61134 67.4501 8.56318 67.6872 8.47133L67.689 8.48654ZM66.8324 6.09632H67.233C67.3584 6.09422 67.4833 6.11479 67.6021 6.15708C67.6998 6.19443 67.7891 6.25194 67.8639 6.32606C67.9327 6.39761 67.9851 6.48382 68.0171 6.57852C68.0509 6.67608 68.0678 6.77886 68.0672 6.88231C68.0666 7.02071 68.0436 7.15805 67.999 7.28857C67.952 7.42225 67.879 7.54432 67.7837 7.64703C67.6884 7.74968 67.5732 7.83067 67.4453 7.88467C67.2951 7.94797 67.1334 7.97894 66.9712 7.97583H66.5097L66.8324 6.09632ZM68.8978 8.61562H69.6192L70.1578 5.46983H69.4364L68.8978 8.61562ZM71.2816 6.39631C71.3739 6.28665 71.4873 6.19695 71.6133 6.1324C71.7436 6.06786 71.886 6.03412 72.0308 6.03367C72.1586 6.0307 72.2859 6.06071 72.3999 6.12099C72.494 6.17277 72.5748 6.24697 72.6358 6.33741L73.1581 5.85143C73.0387 5.69234 72.877 5.57176 72.6931 5.50399C72.4825 5.42254 72.2594 5.38261 72.0344 5.38629C71.7865 5.38341 71.541 5.43521 71.3148 5.53818C71.0982 5.63613 70.9034 5.77747 70.7411 5.95393C70.5759 6.13257 70.4468 6.34288 70.3605 6.57281C70.2694 6.81498 70.2242 7.07259 70.226 7.3322C70.223 7.52744 70.2592 7.72126 70.331 7.90179C70.3991 8.06576 70.5005 8.21278 70.6283 8.33275C70.7616 8.45482 70.9185 8.54779 71.088 8.60613C71.2804 8.67104 71.4825 8.70313 71.6857 8.70102C72.0772 8.70083 72.4632 8.60656 72.8131 8.42572L73.0936 6.76266H71.8462L71.737 7.3721H72.333L72.2352 7.96255C72.1707 7.99551 72.1019 8.01915 72.0308 8.03274C71.9511 8.0464 71.8709 8.05459 71.7907 8.05744C71.6725 8.05931 71.5548 8.0387 71.4438 7.99669C71.3485 7.95908 71.2617 7.90155 71.1893 7.82769C71.1199 7.75427 71.0669 7.66615 71.0343 7.56952C70.9987 7.46656 70.9812 7.35795 70.9824 7.24872C70.98 6.93699 71.0862 6.63463 71.2816 6.39631ZM73.2504 8.61749H73.9718L74.5105 5.46983H73.7891L73.2504 8.61749ZM75.1288 8.61749H75.8466L76.2766 6.10772H77.1139L77.223 5.47173H74.8115L74.7005 6.10772H75.5546L75.1288 8.61749ZM78.5477 7.98911L78.6532 8.61562H79.4114L78.8318 5.46983H78.12L76.1729 8.61749H76.9944L77.363 7.99104L78.5477 7.98911ZM78.3154 6.2805L78.4759 7.3968H77.6748L78.3154 6.2805ZM80.5147 7.97391L80.9447 5.47173H80.2233L79.6847 8.61749H81.6034L81.7144 7.97199L80.5147 7.97391ZM68.0135 3.48972H69.1577L69.2609 2.88221H68.1172L68.2331 2.21205H69.4473L69.5565 1.58177H67.6335L67.0948 4.72942H67.8036L68.0135 3.48972ZM69.5414 3.82385C69.539 3.96478 69.5685 4.10438 69.6264 4.23203C69.6819 4.35331 69.7652 4.45934 69.8683 4.54148C69.9829 4.62769 70.1114 4.69199 70.2483 4.73132C70.41 4.7789 70.5777 4.80192 70.7466 4.79967C70.9348 4.8024 71.1217 4.77223 71.2997 4.71045C71.4523 4.65827 71.5928 4.57485 71.7129 4.46521C71.8335 4.35557 71.9306 4.222 71.9994 4.07256C72.0736 3.91119 72.1261 3.73994 72.1544 3.56376L72.4922 1.57227H71.7834L71.4511 3.48781C71.4366 3.56829 71.4161 3.64759 71.3902 3.72512C71.3648 3.80303 71.3262 3.87567 71.2762 3.93965C71.2231 4.00538 71.1567 4.05851 71.0819 4.09534C70.9878 4.13813 70.8847 4.15824 70.7815 4.15418C70.7001 4.15612 70.6199 4.14261 70.5433 4.11432C70.483 4.09102 70.4293 4.05402 70.3846 4.00609C70.3442 3.9608 70.3141 3.90704 70.296 3.84853C70.2773 3.78717 70.2676 3.72307 70.2682 3.65868C70.2682 3.63211 70.2682 3.60173 70.2682 3.56946C70.2682 3.5381 70.2718 3.50683 70.2797 3.47644L70.606 1.57796H69.8936L69.5583 3.55048C69.5583 3.59414 69.5468 3.6416 69.5414 3.68717C69.5359 3.73273 69.5396 3.765 69.5396 3.80677L69.5414 3.82385ZM74.3742 4.72563L74.4864 4.08014H73.2854L73.7173 1.57796H72.9959L72.4566 4.72372L74.3742 4.72563ZM76.7544 4.08014H75.5528L75.9847 1.57796H75.2633L74.7246 4.72372H76.6434L76.7544 4.08014Z" fill="#1D1D1D"/>
</svg>
