<svg width="161" height="30" viewBox="0 0 161 30" fill="none" xmlns="http://www.w3.org/2000/svg">
<path d="M0 20.9585L1.76718 19.7509C2.25806 20.4774 2.89621 21.0272 3.68162 21.4003C4.46703 21.7733 5.28189 21.9599 6.12621 21.9599C6.87235 21.9599 7.53013 21.7439 8.09956 21.3119C8.68862 20.8799 8.97333 20.2909 8.95369 19.5447C8.95369 19.2306 8.88497 18.9557 8.74752 18.7201C8.62971 18.4648 8.48245 18.2586 8.30573 18.1015C8.12901 17.9445 7.88357 17.807 7.56941 17.6892C7.27488 17.5714 7.0098 17.483 6.77418 17.4241C6.55819 17.3652 6.28329 17.3063 5.94949 17.2474C5.18372 17.11 4.53575 16.9627 4.0056 16.8056C3.49508 16.6485 2.94529 16.4129 2.35624 16.0987C1.78681 15.7649 1.34502 15.3232 1.03085 14.7734C0.736323 14.2236 0.589059 13.556 0.589059 12.7706C0.589059 11.2979 1.14866 10.1885 2.26788 9.44238C3.40672 8.6766 4.69283 8.29372 6.12621 8.29372C7.95229 8.29372 9.48385 8.90241 10.7209 10.1198L9.27768 11.7986C8.41372 10.915 7.36323 10.4732 6.12621 10.4732C5.32116 10.4732 4.58484 10.6598 3.91724 11.0328C3.24964 11.3863 2.91584 11.9459 2.91584 12.7117C2.91584 13.124 3.01402 13.4774 3.21037 13.772C3.42636 14.0665 3.75034 14.3021 4.18232 14.4788C4.61429 14.6359 4.95791 14.7439 5.21317 14.8028C5.46843 14.8617 5.85132 14.9403 6.36184 15.0384C7.81485 15.3133 8.99296 15.7944 9.89619 16.4816C10.7994 17.1492 11.2608 18.1801 11.2805 19.5742C11.2805 21.0076 10.77 22.1268 9.74892 22.9318C8.74752 23.7369 7.53995 24.1394 6.12621 24.1394C3.37727 24.1394 1.3352 23.0791 0 20.9585Z" fill="#1D1D1D"/>
<path d="M15.2672 29.1758V9.38347C17.5056 8.65697 19.4986 8.29372 21.2462 8.29372C22.8366 8.31335 24.2013 8.76496 25.3401 9.64855C26.4986 10.5125 27.0778 11.7495 27.0778 13.3596V19.0146C27.0778 20.605 26.4888 21.8617 25.3107 22.7846C24.1325 23.6878 22.7483 24.1296 21.1578 24.1099C19.8815 24.1099 18.7034 23.835 17.6234 23.2853V29.1758H15.2672ZM17.6234 10.915V21.1941C18.8408 21.6457 20.0288 21.8715 21.1872 21.8715C22.1297 21.8519 22.9446 21.5966 23.6318 21.1057C24.3387 20.5952 24.6921 19.908 24.6921 19.044V13.3302C24.6921 12.4858 24.3485 11.8183 23.6613 11.3274C22.9741 10.8169 22.169 10.5616 21.2462 10.5616C19.6361 10.5616 18.4285 10.6794 17.6234 10.915Z" fill="#1D1D1D"/>
<path d="M31.5464 8.58825H33.9026V23.8449H31.5464V8.58825Z" fill="#1D1D1D"/>
<path d="M45.7724 8.41153V10.6205C45.4975 10.5616 45.0852 10.5321 44.5354 10.5321C43.5536 10.5321 42.7289 10.7874 42.0613 11.2979C41.4134 11.7888 41.0894 12.4859 41.0894 13.3891V23.8449H38.7331V13.3891C38.7331 11.779 39.3124 10.5321 40.4709 9.64855C41.6293 8.76496 42.9547 8.31335 44.447 8.29372C44.9575 8.29372 45.3993 8.33299 45.7724 8.41153Z" fill="#1D1D1D"/>
<path d="M48.4736 19.044V13.3891C48.4736 11.7986 49.0528 10.5616 50.2113 9.678C51.3894 8.77478 52.7835 8.31335 54.3936 8.29372C55.9841 8.31335 57.3585 8.77478 58.517 9.678C59.6755 10.5616 60.2547 11.7986 60.2547 13.3891V19.044C60.2547 20.6541 59.6755 21.901 58.517 22.7846C57.3585 23.6681 55.9841 24.1198 54.3936 24.1394C52.7835 24.1198 51.3894 23.6681 50.2113 22.7846C49.0528 21.901 48.4736 20.6541 48.4736 19.044ZM54.3936 10.5321C53.4511 10.5321 52.6166 10.7776 51.8901 11.2685C51.1832 11.7397 50.8298 12.4269 50.8298 13.3302V19.0735C50.8298 19.9767 51.1832 20.6738 51.8901 21.1646C52.6166 21.6555 53.4511 21.901 54.3936 21.901C55.3165 21.901 56.1313 21.6555 56.8382 21.1646C57.5451 20.6738 57.8985 19.9767 57.8985 19.0735V13.3302C57.8985 12.4466 57.5451 11.7593 56.8382 11.2685C56.1313 10.7776 55.3165 10.5321 54.3936 10.5321Z" fill="#1D1D1D"/>
<path d="M74.9552 10.5321L74.1011 11.0917C73.3156 9.93326 72.0001 9.35402 70.1544 9.35402C68.9566 9.35402 67.9159 9.65837 67.0323 10.2671C66.1684 10.8758 65.7364 11.7495 65.7364 12.8884V19.4858C65.7364 20.6443 66.1684 21.5377 67.0323 22.166C67.8963 22.7747 68.937 23.0791 70.1544 23.0791C71.0772 23.0791 71.9215 22.8827 72.6873 22.49C73.4727 22.0973 74.0225 21.5475 74.3367 20.8407L75.3086 21.3119C74.8963 22.1955 74.2091 22.8926 73.2469 23.4031C72.3044 23.894 71.2736 24.1394 70.1544 24.1394C68.6817 24.1394 67.3956 23.7369 66.296 22.9318C65.2161 22.1071 64.6761 20.9585 64.6761 19.4858V12.9473C64.6761 11.4746 65.2161 10.3358 66.296 9.53074C67.3956 8.70606 68.6817 8.29372 70.1544 8.29372C71.1558 8.29372 72.0884 8.49007 72.9524 8.88277C73.8163 9.25585 74.4839 9.80563 74.9552 10.5321Z" fill="#1D1D1D"/>
<path d="M79.4014 19.4564V12.9767C79.4014 11.5041 79.9414 10.3652 81.0214 9.56019C82.1209 8.73551 83.4169 8.31335 84.9091 8.29372C86.4014 8.31335 87.6875 8.73551 88.7675 9.56019C89.8474 10.3652 90.3874 11.5041 90.3874 12.9767V19.4564C90.3874 20.929 89.8474 22.0777 88.7675 22.9024C87.6875 23.7074 86.4014 24.1198 84.9091 24.1394C83.4169 24.1198 82.1209 23.7074 81.0214 22.9024C79.9414 22.0777 79.4014 20.929 79.4014 19.4564ZM88.0017 10.2965C87.1377 9.68782 86.1069 9.38347 84.9091 9.38347C83.7114 9.38347 82.6707 9.68782 81.7871 10.2965C80.9035 10.9052 80.4617 11.7986 80.4617 12.9767V19.4564C80.4617 20.6345 80.9035 21.5377 81.7871 22.166C82.6707 22.7747 83.7114 23.0791 84.9091 23.0791C86.0873 23.0791 87.1181 22.7747 88.0017 22.166C88.8853 21.5377 89.3271 20.6345 89.3271 19.4564V12.9767C89.3271 11.7986 88.8853 10.9052 88.0017 10.2965Z" fill="#1D1D1D"/>
<path d="M95.2197 19.4564V12.9767C95.2197 11.5041 95.7597 10.3652 96.8396 9.56019C97.9392 8.73551 99.2351 8.31335 100.727 8.29372C102.22 8.31335 103.506 8.73551 104.586 9.56019C105.666 10.3652 106.206 11.5041 106.206 12.9767V19.4564C106.206 20.929 105.666 22.0777 104.586 22.9024C103.506 23.7074 102.22 24.1198 100.727 24.1394C99.2351 24.1198 97.9392 23.7074 96.8396 22.9024C95.7597 22.0777 95.2197 20.929 95.2197 19.4564ZM103.82 10.2965C102.956 9.68782 101.925 9.38347 100.727 9.38347C99.5297 9.38347 98.489 9.68782 97.6054 10.2965C96.7218 10.9052 96.28 11.7986 96.28 12.9767V19.4564C96.28 20.6345 96.7218 21.5377 97.6054 22.166C98.489 22.7747 99.5297 23.0791 100.727 23.0791C101.906 23.0791 102.936 22.7747 103.82 22.166C104.704 21.5377 105.145 20.6345 105.145 19.4564V12.9767C105.145 11.7986 104.704 10.9052 103.82 10.2965Z" fill="#1D1D1D"/>
<path d="M112.54 2.99219V17.3358L121.023 8.58825H122.319L115.721 15.4508L122.319 23.8449H121.052L114.985 16.2166L112.54 18.6611V23.8449H111.48V2.99219H112.54Z" fill="#1D1D1D"/>
<path d="M126.55 8.58825H127.611V23.8449H126.55V8.58825Z" fill="#1D1D1D"/>
<path d="M133.278 23.8449V9.41293C135.418 8.66679 137.274 8.29372 138.845 8.29372C140.298 8.33299 141.555 8.75514 142.615 9.56019C143.675 10.3652 144.205 11.4943 144.205 12.9473V23.8449H143.145V12.9473C143.145 11.8084 142.713 10.9347 141.849 10.326C141.005 9.69764 140.003 9.38347 138.845 9.38347C137.215 9.38347 135.713 9.678 134.339 10.2671V23.8449H133.278Z" fill="#1D1D1D"/>
<path d="M150.229 27.9977L150.877 27.3498C151.938 28.1941 153.253 28.6162 154.824 28.6162C156.061 28.6359 157.102 28.3512 157.946 27.7621C158.79 27.173 159.212 26.2993 159.212 25.1408V23.0496C157.74 23.7761 156.277 24.1394 154.824 24.1394C153.351 24.159 152.075 23.7565 150.995 22.9318C149.915 22.0875 149.375 20.9487 149.375 19.5153V12.8884C149.375 11.455 149.896 10.3358 150.936 9.53074C151.996 8.72569 153.253 8.31335 154.706 8.29372C156.198 8.29372 158.044 8.66679 160.243 9.41293V25.1113C160.243 26.584 159.713 27.7032 158.653 28.469C157.612 29.2348 156.346 29.6176 154.853 29.6176C152.91 29.6176 151.368 29.0777 150.229 27.9977ZM159.212 22.0188V10.1787C157.877 9.60928 156.375 9.32457 154.706 9.32457C153.528 9.32457 152.517 9.63873 151.673 10.2671C150.828 10.8758 150.416 11.7397 150.435 12.8589V19.5153C150.435 20.6541 150.858 21.5279 151.702 22.1366C152.546 22.7453 153.567 23.0693 154.765 23.1085C156.022 23.0889 157.504 22.7257 159.212 22.0188Z" fill="#1D1D1D"/>
<rect x="31.5601" y="0.757324" width="2.31893" height="4.92007" fill="#146957"/>
<circle cx="127.092" cy="4.8412" r="0.710827" fill="#1D1D1D"/>
</svg>
