<svg width="232" height="87" viewBox="0 0 232 87" fill="none" xmlns="http://www.w3.org/2000/svg">
<g opacity="0.9" filter="url(#filter0_d)">
<rect x="19.3467" y="18.3535" width="191" height="46" rx="23" fill="white"/>
</g>
<path d="M83.7367 45.4655C85.9067 45.4655 87.5167 44.3035 87.8947 42.1335H87.1667C86.8447 43.8695 85.5567 44.8075 83.7507 44.8075C81.3567 44.8075 79.8867 43.0995 79.8867 40.3975V40.2855C79.8867 37.6395 81.5107 35.8475 83.7507 35.8475C85.6127 35.8475 86.6767 36.7295 86.9987 38.3535H87.7827C87.4887 36.2955 85.7947 35.2175 83.7367 35.2175C81.1187 35.2175 79.0887 37.3455 79.0887 40.2995V40.4115C79.0887 43.4355 80.8807 45.4655 83.7367 45.4655ZM90.2972 38.8015L93.0412 45.3535H93.3912L96.1772 38.8015V45.3535H96.9192V38.0315H95.8972L93.2652 44.1775L90.7172 38.0315H89.6532V45.3535H90.2972V38.8015ZM102.219 44.8355C100.623 44.8355 99.4472 43.6315 99.4472 41.7555V41.6435C99.4472 39.7395 100.651 38.5495 102.219 38.5495C103.787 38.5495 104.977 39.6975 104.977 41.6435V41.7555C104.977 43.6455 103.787 44.8355 102.219 44.8355ZM102.205 45.4655C104.179 45.4655 105.747 43.9395 105.747 41.7415V41.6295C105.747 39.4035 104.193 37.9195 102.219 37.9195C100.259 37.9195 98.6772 39.4455 98.6772 41.6435V41.7555C98.6772 43.9255 100.231 45.4655 102.205 45.4655ZM112.233 38.6615V38.0315H106.423V38.6615H108.957V45.3535H109.699V38.6615H112.233ZM113.729 38.0315V47.9015H114.471V43.6875C114.849 44.5835 115.815 45.4655 117.257 45.4655C119.161 45.4655 120.547 44.0235 120.547 41.7275V41.6155C120.547 39.3335 119.105 37.9195 117.257 37.9195C115.969 37.9195 114.877 38.8015 114.471 39.7395V38.0315H113.729ZM117.201 44.8355C115.689 44.8355 114.457 43.7575 114.457 41.7555V41.6435C114.457 39.6275 115.759 38.5495 117.187 38.5495C118.587 38.5495 119.777 39.6275 119.777 41.6435V41.7555C119.777 43.7295 118.755 44.8355 117.201 44.8355ZM125.227 45.4655C126.809 45.4655 127.943 44.7095 128.265 43.3095H127.523C127.257 44.3315 126.459 44.8355 125.227 44.8355C123.477 44.8355 122.567 43.7295 122.525 41.7555H128.321V41.4895C128.321 39.0675 126.879 37.9195 125.115 37.9195C123.155 37.9195 121.755 39.4595 121.755 41.6575V41.7695C121.755 43.9675 123.113 45.4655 125.227 45.4655ZM127.551 41.1535H122.553C122.707 39.5435 123.687 38.5495 125.115 38.5495C126.557 38.5495 127.481 39.3615 127.551 41.1535ZM134.929 38.6615V38.0315H129.119V38.6615H131.653V45.3535H132.395V38.6615H134.929ZM136.438 38.0315V45.3535H138.902C140.386 45.3535 141.478 44.6255 141.478 43.0575V43.0155C141.478 41.4755 140.344 40.7195 138.762 40.7195H137.18V38.0315H136.438ZM138.944 44.7655H137.18V41.3075H138.804C140.092 41.3075 140.736 41.8955 140.736 43.0155V43.0575C140.736 44.1215 140.176 44.7655 138.944 44.7655ZM146.638 38.0315V45.3535H149.494C151.076 45.3535 151.986 44.6675 151.986 43.2675V43.2255C151.986 42.2175 151.356 41.6715 150.334 41.5035C151.174 41.2935 151.622 40.7195 151.622 39.9215V39.8795C151.622 38.5495 150.586 38.0315 149.256 38.0315H146.638ZM147.38 38.6335H149.242C150.25 38.6335 150.838 38.9975 150.838 39.9075V39.9495C150.838 40.8175 150.306 41.2515 149.256 41.2515H147.38V38.6335ZM147.38 41.8535H149.368C150.558 41.8535 151.202 42.3015 151.202 43.2675V43.3095C151.202 44.2755 150.614 44.7515 149.424 44.7515H147.38V41.8535ZM153.829 45.3535H154.571L158.925 39.1095V45.3535H159.667V38.0315H158.925L154.571 44.2615V38.0315H153.829V45.3535ZM163.099 42.0915C163.211 41.0415 163.309 39.4315 163.351 38.6475H166.613V44.7235H162.399C162.805 44.2895 162.945 43.4215 163.099 42.0915ZM161.559 47.1315L161.615 45.3535H167.733L167.789 47.1315H168.391V44.7235H167.341V38.0315H162.693L162.609 39.4735C162.553 40.2995 162.511 41.2935 162.413 42.0215C162.259 43.4775 162.119 44.5415 161.447 44.7235H160.957V47.1315H161.559ZM172.737 45.4655C174.319 45.4655 175.453 44.7095 175.775 43.3095H175.033C174.767 44.3315 173.969 44.8355 172.737 44.8355C170.987 44.8355 170.077 43.7295 170.035 41.7555H175.831V41.4895C175.831 39.0675 174.389 37.9195 172.625 37.9195C170.665 37.9195 169.265 39.4595 169.265 41.6575V41.7695C169.265 43.9675 170.623 45.4655 172.737 45.4655ZM175.061 41.1535H170.063C170.217 39.5435 171.197 38.5495 172.625 38.5495C174.067 38.5495 174.991 39.3615 175.061 41.1535ZM180.559 44.8355C178.963 44.8355 177.787 43.6315 177.787 41.7555V41.6435C177.787 39.7395 178.991 38.5495 180.559 38.5495C182.127 38.5495 183.317 39.6975 183.317 41.6435V41.7555C183.317 43.6455 182.127 44.8355 180.559 44.8355ZM180.545 45.4655C182.519 45.4655 184.087 43.9395 184.087 41.7415V41.6295C184.087 39.4035 182.533 37.9195 180.559 37.9195C178.599 37.9195 177.017 39.4455 177.017 41.6435V41.7555C177.017 43.9255 178.571 45.4655 180.545 45.4655Z" fill="#1D1D1D"/>
<circle cx="42.3467" cy="41.3535" r="20" fill="#146957"/>
<path d="M46.8517 41.5496L40.8367 37.2065C39.978 36.5865 38.6884 37.6465 38.962 38.6696C39.6272 41.1573 39.4527 43.1383 38.9581 44.7366C38.6569 45.7097 39.7099 46.8176 40.6178 46.3558L46.7197 43.2516C47.3866 42.9124 47.4583 41.9876 46.8517 41.5496Z" fill="white"/>
<defs>
<filter id="filter0_d" x="0.34668" y="0.353516" width="231" height="86" filterUnits="userSpaceOnUse" color-interpolation-filters="sRGB">
<feFlood flood-opacity="0" result="BackgroundImageFix"/>
<feColorMatrix in="SourceAlpha" type="matrix" values="0 0 0 0 0 0 0 0 0 0 0 0 0 0 0 0 0 0 127 0"/>
<feOffset dx="1" dy="2"/>
<feGaussianBlur stdDeviation="10"/>
<feColorMatrix type="matrix" values="0 0 0 0 0 0 0 0 0 0 0 0 0 0 0 0 0 0 0.1 0"/>
<feBlend mode="normal" in2="BackgroundImageFix" result="effect1_dropShadow"/>
<feBlend mode="normal" in="SourceGraphic" in2="effect1_dropShadow" result="shape"/>
</filter>
</defs>
</svg>
