<svg width="69" height="49" viewBox="0 0 69 49" fill="none" xmlns="http://www.w3.org/2000/svg">
<path d="M67.8228 23.5568C67.9833 25.0368 65.8504 27.2952 63.9397 27.2923C62.5947 27.2923 60.8904 26.6663 60.659 24.1577C60.2384 19.6053 63.2052 16.3968 63.1565 15.9542C63.1078 15.5117 62.2716 15.0781 61.8067 15.1284C61.8067 15.1284 61.773 15.1625 61.7122 15.2276C61.4407 14.3115 60.1251 13.8749 59.3371 13.9326C58.1778 14.0199 56.6819 15.7707 55.999 17.119C55.5018 17.1885 55.0138 17.3091 54.5412 17.4786C54.8937 14.8354 53.7445 14.1916 52.5866 14.3174C51.8565 14.3893 51.1548 14.6409 50.5448 15.05C50.5573 14.9732 50.5602 14.8952 50.554 14.8176C50.4903 14.2256 48.4562 13.4634 48.5372 14.2256C48.6848 15.5576 45.2918 20.2195 43.8948 24.8563C43.7384 24.9599 43.6853 24.9466 43.5009 24.8962C42.8031 24.7053 42.1599 22.6067 41.4637 21.8919C42.5907 21.3162 46.3451 17.7657 46.4425 16.2828C46.4779 15.7456 44.5793 14.5068 44.3329 15.2661C43.8904 16.6321 41.4238 20.2032 39.9073 20.8899C40.5815 18.5471 41.7616 16.4648 41.7454 16.3168C41.7144 16.0208 40.5446 15.5679 39.717 15.6997C39.3836 15.753 38.2963 18.2645 37.6517 20.1056C35.9847 22.8021 30.6636 28.938 30.2034 28.9854C29.8671 29.0224 29.6472 28.1907 29.6472 27.4225C29.6472 23.3171 33.8339 18.7972 35.4595 18.6211C35.9021 18.5723 36.7533 19.3153 36.6721 18.5664C36.5571 17.4993 35.256 16.8599 34.449 16.894C31.2169 17.0302 28.3475 20.7108 27.4285 22.8509C26.2483 24.8977 22.1724 29.8319 20.7901 31.6375C20.7716 31.6617 20.7458 31.6791 20.7165 31.6871C20.6872 31.6951 20.6561 31.6933 20.628 31.6818C20.5999 31.6704 20.5762 31.6501 20.5607 31.6239C20.5452 31.5977 20.5388 31.5671 20.5423 31.5368C21.3167 25.1893 26.9771 19.0252 26.9815 18.3192C26.9815 17.6932 25.7719 17.2418 24.664 17.3617C23.3127 17.5097 14.131 30.7362 11.1644 33.7331C11.1345 33.763 11.0966 33.7833 11.0553 33.7918C11.014 33.8002 10.9712 33.7963 10.9321 33.7806C10.893 33.7648 10.8593 33.7379 10.8354 33.7032C10.8114 33.6684 10.798 33.6274 10.797 33.5851C10.5506 25.5489 27.2486 10.1187 27.3562 8.84446C27.427 7.99645 25.4517 7.36446 24.4885 7.39407C17.1802 7.62494 0 21.6373 0 25.0161C0 26.6441 2.85895 28.7737 2.84273 27.7259C2.78077 24.026 19.0464 8.91403 24.2081 9.15821C22.3804 10.3082 6.19736 24.6343 5.50692 34.9186C5.30337 37.9525 7.89385 38.7044 9.66115 38.7044C10.8649 38.7044 12.2073 37.9377 17.6154 29.3805C17.4576 30.045 17.2688 31.7411 17.3071 32.1067C17.465 33.5644 19.5465 34.4065 20.8343 34.2437C21.4834 34.1638 24.2273 29.9237 26.3767 27.1399C26.3324 29.3184 27.6955 31.1358 30.6754 30.8191C32.0725 30.6711 35.5628 25.8582 36.5763 23.9475C36.3211 25.0176 35.8092 26.3377 35.8933 27.1147C35.9301 27.4625 38.4011 29.0061 38.2374 27.4758C38.1429 26.6026 38.8274 24.6639 39.2597 22.9693C40.639 23.4029 40.9075 27.6194 43.259 27.3648L43.3327 27.3382C43.1528 28.3653 43.0377 29.2222 43.1439 30.1827C43.1985 30.6859 43.5127 30.8339 43.6528 31.2186C28.2915 33.1012 8.2715 42.4665 4.05387 43.4521C2.49015 43.8147 2.40163 43.0303 2.1361 43.387C1.40882 44.346 3.85323 48.3684 6.20175 48.0341C13.0246 47.0633 26.8001 36.0227 45.9321 32.7623L45.7845 31.9157C45.5367 21.8519 51.8551 15.42 52.5071 15.9587C52.8022 16.2088 52.7506 17.1027 52.4921 18.4213C50.0023 20.4208 47.7598 22.8909 48.049 25.5814C48.0962 26.0254 48.381 27.5157 49.819 27.3086C51.911 27.0126 53.718 22.2974 54.3468 18.8816C54.6666 18.6261 55.0292 18.4293 55.4174 18.3C55.0606 19.336 54.6801 20.2476 54.6801 21.664C54.6801 22.145 54.7023 24.7867 56.8531 24.7867C57.5904 24.7867 58.2839 24.2687 58.9388 23.514C59.2132 25.91 60.2664 27.1547 61.6399 28.0412C58.3808 28.3341 55.1445 28.8433 51.9525 29.5655C50.8814 29.6825 50.8708 31.6375 51.2942 31.7411C60.8953 29.3628 65.6526 29.5877 66.7015 29.4294C67.1867 29.3569 66.9108 28.7811 66.4537 28.0649C68.4834 27.1206 68.8138 25.5489 68.9613 24.9421C69.2565 23.6501 67.7634 23.0033 67.8228 23.5568ZM49.6083 26.1498C49.4872 26.1631 49.399 25.8538 49.3691 25.5785C49.2514 24.4892 50.4594 22.2885 52.0248 20.3009C51.2426 23.0877 50.16 26.0891 49.6083 26.1498ZM56.9191 23.1646C56.7055 23.1972 56.6009 22.8361 56.5859 22.6038C56.3795 19.2931 59.0656 15.7145 59.8715 15.4659C60.4231 15.2957 60.6546 15.6139 60.6826 15.8684C60.699 16.0312 61.0071 15.9025 61.1928 16.0164C60.8731 16.45 60.265 17.4357 60.1603 17.6443C59.2224 19.2634 57.5359 23.0729 56.9191 23.1646Z" fill="#CD3146"/>
<path d="M45.4744 0.0719281C45.9814 0.308541 46.9387 2.53581 46.8097 3.41426C46.0414 8.62683 32.1338 7.56988 29.7936 12.9425C29.1021 14.5337 28.0864 12.6011 28.3968 11.8459C30.5588 6.60357 43.8287 5.14422 44.6753 0.557896C44.7737 0.0251627 45.1041 -0.09951 45.4744 0.0719281Z" fill="#CD3146"/>
<path d="M51.5739 7.79208C51.6089 7.76726 51.6482 7.7496 51.6893 7.73997C51.7295 7.72897 51.7712 7.72347 51.8123 7.72362C51.8908 7.72259 51.9684 7.73938 52.0398 7.77276C52.1074 7.80688 52.1656 7.85807 52.2091 7.92162L52.5908 7.57179C52.5496 7.51938 52.5009 7.47374 52.4461 7.43632C52.3884 7.39627 52.3264 7.36328 52.2611 7.33807C52.1935 7.31077 52.124 7.29033 52.0526 7.27705C51.9826 7.26289 51.9112 7.25588 51.8402 7.25617C51.7125 7.25544 51.5858 7.27452 51.4637 7.31276C51.3526 7.34848 51.2485 7.40391 51.1558 7.47651C51.0688 7.54624 50.9979 7.63466 50.9473 7.73554C50.8957 7.84065 50.8692 7.95705 50.8706 8.0749C50.8688 8.16264 50.8844 8.24984 50.917 8.33096C50.9454 8.39958 50.9865 8.46176 51.0385 8.51403C51.0915 8.56614 51.1521 8.60936 51.2178 8.64206C51.2902 8.6788 51.3644 8.71062 51.4406 8.73734C51.537 8.7678 51.6279 8.81296 51.7111 8.8713C51.7433 8.89344 51.7697 8.92366 51.7872 8.95909C51.8047 8.99446 51.8137 9.03393 51.8123 9.07373C51.8142 9.12201 51.8028 9.16974 51.7806 9.21218C51.7598 9.24984 51.7305 9.28196 51.6955 9.30595C51.6577 9.33135 51.6151 9.34906 51.5711 9.35806C51.5233 9.36892 51.4751 9.37442 51.4264 9.37442C51.328 9.37354 51.2315 9.34965 51.144 9.30449C51.0598 9.26483 50.9875 9.20264 50.9345 9.12434L50.5178 9.47266C50.567 9.53675 50.6257 9.59291 50.6914 9.63938C50.7595 9.68887 50.8333 9.72935 50.9113 9.75996C50.9913 9.79145 51.074 9.81534 51.1587 9.83145C51.2438 9.84682 51.3299 9.8548 51.416 9.85524C51.5337 9.85514 51.651 9.83962 51.7645 9.80911C51.8785 9.77972 51.9864 9.72926 52.0828 9.66025C52.1779 9.59388 52.2569 9.50634 52.3146 9.4042C52.3765 9.28814 52.4078 9.15709 52.4045 9.02463C52.4059 8.93962 52.3912 8.8552 52.3609 8.77602C52.3311 8.70196 52.2872 8.63466 52.2323 8.57807C52.1699 8.51919 52.1003 8.46916 52.0251 8.42921C51.9357 8.38113 51.8426 8.33982 51.7475 8.30566C51.6681 8.27982 51.5929 8.24167 51.5247 8.19252C51.4992 8.17378 51.4789 8.14892 51.4647 8.12011C51.451 8.0913 51.4443 8.05943 51.4448 8.02726C51.4434 7.97938 51.4557 7.93208 51.4812 7.89184C51.5039 7.85155 51.5356 7.81739 51.5739 7.79208ZM52.7502 7.31573L52.6617 7.81442H53.3329L52.999 9.78381H53.5604L53.899 7.81442H54.5555L54.6397 7.31573H52.7502ZM56.3395 7.31573L56.0789 8.81773C56.0685 8.88094 56.0533 8.94317 56.033 9.00376C56.0127 9.06439 55.9824 9.12089 55.9431 9.17047C55.901 9.22215 55.849 9.26385 55.7899 9.29257C55.7161 9.32653 55.6362 9.34278 55.5553 9.34021C55.4919 9.34171 55.4285 9.33111 55.3685 9.30896C55.3207 9.29106 55.2777 9.26201 55.2427 9.2241C55.2115 9.18838 55.1878 9.14629 55.1736 9.10055C55.1585 9.05237 55.1514 9.00215 55.1519 8.95169C55.1519 8.93086 55.1519 8.90853 55.1519 8.88172C55.1533 8.85724 55.1561 8.83286 55.1604 8.80877L55.4181 7.32021H54.8582L54.5947 8.86833C54.5947 8.90254 54.5862 8.93831 54.5829 8.97549C54.5801 9.01271 54.5829 9.04692 54.5829 9.07967C54.5815 9.19052 54.6037 9.3004 54.6482 9.40123C54.6922 9.49587 54.7569 9.5785 54.8378 9.6424C54.9272 9.71081 55.0284 9.76132 55.1358 9.79125C55.2635 9.82843 55.3954 9.84648 55.5279 9.84483C55.6754 9.8476 55.8221 9.8239 55.962 9.77485C56.0822 9.73183 56.1928 9.66561 56.2889 9.57986C56.3811 9.49656 56.4563 9.39539 56.5102 9.28215C56.5689 9.15578 56.61 9.02147 56.6318 8.88322L56.8952 7.32318L56.3395 7.31573ZM58.9436 7.55539C58.8353 7.47121 58.7118 7.4095 58.5808 7.37379C58.4493 7.33544 58.3136 7.31593 58.1769 7.31573H57.2887L56.8663 9.78381H57.8458C58.0431 9.78566 58.2389 9.7514 58.4243 9.68259C58.596 9.61996 58.7534 9.5222 58.8873 9.39529C59.0188 9.27023 59.1233 9.11807 59.1942 8.94872C59.2699 8.76006 59.3073 8.55738 59.304 8.35325C59.3087 8.18867 59.2732 8.02551 59.2013 7.87841C59.138 7.75135 59.0481 7.64045 58.9379 7.55388L58.9436 7.55539ZM58.6688 8.74624C58.6324 8.85106 58.5747 8.94678 58.4999 9.02731C58.4252 9.1078 58.3349 9.1713 58.2346 9.21369C58.1168 9.26327 57.9906 9.2876 57.8629 9.28512H57.5011L57.7517 7.81145H58.07C58.1684 7.8095 58.2663 7.82619 58.359 7.86055C58.4361 7.88931 58.5061 7.93447 58.5647 7.99305C58.6187 8.04838 58.6598 8.11554 58.6849 8.18955C58.7109 8.26605 58.7241 8.34658 58.7236 8.4277C58.7222 8.53442 58.7028 8.64006 58.6674 8.7403L58.6688 8.74624ZM59.3763 9.78823H59.942L60.3643 7.32172H59.7987L59.3763 9.78823ZM62.6937 7.55539C62.5887 7.4569 62.4643 7.38235 62.329 7.33656C62.1725 7.2824 62.0083 7.25622 61.8433 7.25919C61.647 7.25724 61.4531 7.29734 61.2729 7.37675C61.104 7.45126 60.9518 7.56011 60.8245 7.6968C60.6987 7.8352 60.6004 7.99748 60.5351 8.17466C60.4641 8.36449 60.4287 8.56658 60.431 8.77009C60.4296 8.92279 60.4566 9.07441 60.5105 9.21665C60.562 9.34726 60.6406 9.46463 60.7408 9.5605C60.8472 9.65904 60.9721 9.73403 61.1083 9.78084C61.2667 9.83373 61.4332 9.85938 61.6002 9.85675C61.796 9.85938 61.9904 9.81928 62.1701 9.73913C62.338 9.66459 62.4898 9.55573 62.6156 9.41909C62.7414 9.28069 62.8398 9.11841 62.9051 8.94128C62.9741 8.75398 63.0091 8.5551 63.0077 8.35476C63.0096 8.20201 62.9826 8.05028 62.9283 7.90819C62.8791 7.77198 62.801 7.64892 62.6998 7.54795L62.6937 7.55539ZM62.3626 8.74624C62.3285 8.85446 62.2756 8.95534 62.206 9.04395C62.1389 9.1315 62.0542 9.20308 61.9573 9.25388C61.8542 9.30712 61.7402 9.33417 61.6248 9.33276C61.5344 9.33471 61.4451 9.31797 61.3613 9.28361C61.2895 9.25369 61.2242 9.20853 61.1703 9.15115C61.1178 9.09495 61.0776 9.02799 61.0515 8.95466C61.0241 8.87695 61.0104 8.79476 61.0113 8.71203C61.0113 8.5951 61.0298 8.47899 61.0662 8.36819C61.1026 8.26035 61.1561 8.15967 61.2251 8.07048C61.2942 7.98405 61.3793 7.91271 61.4758 7.86055C61.5671 7.81393 61.6664 7.78692 61.7681 7.78133C61.8698 7.77568 61.9719 7.7915 62.0675 7.8278C62.1394 7.85758 62.2046 7.90269 62.2585 7.96031C62.3096 8.01773 62.3493 8.08503 62.3754 8.15826C62.4033 8.23549 62.417 8.31719 62.416 8.39943C62.4146 8.51335 62.3962 8.62634 62.3612 8.73437L62.3626 8.74624ZM53.0742 6.65335C53.2454 6.59014 53.4029 6.49243 53.5372 6.366C53.6687 6.24114 53.7732 6.08892 53.8437 5.91943C53.9203 5.73102 53.9576 5.52819 53.9539 5.32401C53.9581 5.15895 53.9226 4.9954 53.8512 4.84769C53.7883 4.72177 53.6985 4.6119 53.5892 4.52615C53.4804 4.44206 53.357 4.37994 53.226 4.34306C53.0945 4.30592 52.9588 4.2869 52.8225 4.28649H51.9339L51.5129 6.75306H52.491C52.6896 6.75121 52.8869 6.71345 53.0727 6.64143L53.0742 6.65335ZM52.4026 4.7792H52.7166C52.815 4.77756 52.9129 4.79369 53.0061 4.82684C53.0827 4.85613 53.1527 4.90122 53.2113 4.95934C53.2652 5.01544 53.3064 5.08304 53.3315 5.15729C53.3579 5.23379 53.3712 5.31437 53.3707 5.39549C53.3702 5.50401 53.3523 5.6117 53.3173 5.71403C53.2804 5.81885 53.2231 5.91457 53.1484 5.9951C53.0737 6.07559 52.9834 6.13909 52.8831 6.18143C52.7653 6.23106 52.6386 6.25535 52.5113 6.25291H52.1495L52.4026 4.7792ZM54.022 6.75457H54.5876L55.01 4.28798H54.4443L54.022 6.75457ZM55.8911 5.01442C55.9635 4.92844 56.0524 4.85811 56.1512 4.80749C56.2534 4.75689 56.365 4.73043 56.4785 4.73008C56.5788 4.72775 56.6786 4.75129 56.768 4.79855C56.8417 4.83914 56.9051 4.89732 56.9529 4.96824L57.3625 4.58719C57.2688 4.46244 57.1421 4.3679 56.9978 4.31476C56.8328 4.2509 56.6578 4.21959 56.4814 4.22247C56.287 4.22022 56.0945 4.26083 55.9171 4.34157C55.7473 4.41838 55.5946 4.52919 55.4673 4.66756C55.3377 4.80763 55.2365 4.97253 55.1689 5.15282C55.0975 5.3427 55.062 5.54469 55.0634 5.74824C55.0611 5.90133 55.0894 6.0533 55.1457 6.19486C55.1992 6.32342 55.2786 6.4387 55.3789 6.53277C55.4834 6.62848 55.6064 6.70138 55.7393 6.74712C55.8902 6.79802 56.0486 6.82318 56.208 6.82152C56.5149 6.82138 56.8176 6.74746 57.0919 6.60566L57.3119 5.30167H56.3338L56.2482 5.77953H56.7155L56.6389 6.2425C56.5882 6.26834 56.5343 6.28688 56.4785 6.29753C56.4161 6.30824 56.3532 6.31466 56.2903 6.3169C56.1976 6.31836 56.1054 6.30221 56.0183 6.26926C55.9436 6.23977 55.8755 6.19466 55.8187 6.13676C55.7643 6.07919 55.7227 6.01009 55.6972 5.93432C55.6693 5.85359 55.6556 5.76844 55.6565 5.68279C55.6546 5.43836 55.7379 5.20128 55.8911 5.01442ZM57.4348 6.75603H58.0005L58.4228 4.28798H57.8572L57.4348 6.75603ZM58.9076 6.75603H59.4705L59.8077 4.78814H60.4641L60.5497 4.28947H58.6589L58.5718 4.78814H59.2415L58.9076 6.75603ZM61.5884 6.26333L61.6711 6.75457H62.2656L61.8111 4.28798H61.253L59.7263 6.75603H60.3705L60.6595 6.26483L61.5884 6.26333ZM61.4063 4.92362L61.5321 5.7989H60.904L61.4063 4.92362ZM63.1307 6.2514L63.4679 4.28947H62.9022L62.4799 6.75603H63.9844L64.0714 6.2499L63.1307 6.2514ZM53.3286 2.73539H54.2258L54.3067 2.25905H53.41L53.5008 1.73358H54.4528L54.5384 1.23938H53.0306L52.6083 3.70743H53.164L53.3286 2.73539ZM54.5266 2.99738C54.5247 3.10788 54.5479 3.21734 54.5933 3.31743C54.6368 3.41253 54.7021 3.49566 54.783 3.56007C54.8728 3.62766 54.9736 3.67808 55.0809 3.70892C55.2077 3.74623 55.3392 3.76427 55.4716 3.76251C55.6192 3.76465 55.7658 3.74099 55.9053 3.69255C56.0249 3.65164 56.1351 3.58623 56.2293 3.50027C56.3239 3.4143 56.4 3.30957 56.4539 3.19239C56.5121 3.06586 56.5532 2.93159 56.5755 2.79344L56.8403 1.23193H56.2846L56.024 2.7339C56.0127 2.797 55.9966 2.85918 55.9762 2.91997C55.9564 2.98106 55.9261 3.03801 55.8868 3.08818C55.8452 3.13972 55.7932 3.18138 55.7346 3.21026C55.6608 3.24381 55.5799 3.25957 55.499 3.25639C55.4352 3.25791 55.3723 3.24732 55.3122 3.22514C55.2649 3.20686 55.2228 3.17785 55.1878 3.14028C55.1561 3.10476 55.1325 3.06261 55.1183 3.01673C55.1036 2.96862 55.0961 2.91836 55.0965 2.86787C55.0965 2.84704 55.0965 2.82322 55.0965 2.79792C55.0965 2.77332 55.0994 2.74881 55.1055 2.72498L55.3614 1.2364H54.8028L54.5399 2.78304C54.5399 2.81727 54.5309 2.85448 54.5266 2.89021C54.5224 2.92593 54.5252 2.95124 54.5252 2.98399L54.5266 2.99738ZM58.316 3.70445L58.4039 3.19833H57.4623L57.8009 1.2364H57.2352L56.8124 3.70296L58.316 3.70445ZM60.1823 3.19833H59.2401L59.5788 1.2364H59.0131L58.5907 3.70296H60.0952L60.1823 3.19833Z" fill="#CD3146"/>
</svg>
